<svg xmlns="http://www.w3.org/2000/svg" width="134.303" height="149.831" viewBox="0 0 134.303 149.831">
  <g id="air-conditioning" opacity="0.6">
    <path id="XMLID_619_" d="M195.309,0l-6.341,6.341L196.623,14V28.218L186.341,17.936,180,24.277,196.623,40.9V51.966l2.94.729,1.544-2.971L204.1,30.267,201.107,5.8Z" transform="translate(-133.956)" fill="#979fef"/>
    <path id="XMLID_618_" d="M255.09,40.9l16.623-16.623-6.341-6.341L255.09,28.218V14l7.655-7.655L256.4,0l-5.8,5.8V49.724l1.918,2.971,2.566-.729Z" transform="translate(-183.455 0)" fill="#6b77e8"/>
    <path id="XMLID_667_" d="M27.89,112.015,38.465,109.7l11.974,7.672-14.2,3.11,1.918,8.761,22.964-5.028,9.593,6.146,4.754-7.605-9.508-6.093L60.928,93.7l-8.76,1.918,3.11,14.2L43.3,102.149,40.988,91.574l-8.76,1.918,1.754,8.009-8.009,1.754Z" transform="translate(-25.972 -64.199)" fill="#979fef"/>
    <path id="XMLID_668_" d="M71.047,279.96l-9.564,6.208-22.993-4.892-1.867,8.772,14.222,3.026-11.929,7.743-10.588-2.252-1.866,8.772,8.019,1.706-1.706,8.019,8.772,1.866L43.8,308.339,55.729,300.6,52.7,314.817l8.772,1.866,4.892-22.993,9.454-6.137Z" transform="translate(-26.316 -196.27)" fill="#979fef"/>
    <path id="XMLID_616_" d="M196.623,325.494V336.56L180,353.182l6.341,6.341,10.281-10.281v14.222l-7.655,7.655,6.341,6.341,5.8-5.8,2.989-24.47-2.989-19.457-1.545-3.045Z" transform="translate(-133.956 -227.629)" fill="#979fef"/>
    <g id="Group_53" data-name="Group 53" transform="translate(44.731 27.173)">
      <path id="XMLID_615_" d="M256.4,377.458l6.341-6.341-7.655-7.655V349.24l10.282,10.281,6.341-6.341L255.09,336.557V325.491l-3.139-.8-1.345,3.045v43.926l5.8,5.8Z" transform="translate(-228.186 -254.8)" fill="#6b77e8"/>
      <path id="XMLID_614_" d="M357.264,298.242l-10.575,2.316-11.974-7.672,14.2-3.11L347,281.014l-22.964,5.028L314.45,279.9l-4.756,7.6,9.5,6.09,5.028,22.964,8.761-1.918-3.11-14.2,11.974,7.672,2.316,10.575,8.761-1.918-1.754-8.009L359.182,307C358.511,303.939,357.935,301.306,357.264,298.242Z" transform="translate(-269.61 -223.401)" fill="#6b77e8"/>
      <path id="XMLID_613_" d="M352.684,92.765,343.912,90.9l-2.253,10.589-11.928,7.743,3.026-14.222-8.772-1.866-4.892,22.994-9.454,6.137,4.773,7.593,9.564-6.208,22.994,4.892,1.866-8.772-14.222-3.026,11.929-7.744,10.588,2.253L359,102.491l-8.019-1.706Z" transform="translate(-269.572 -90.899)" fill="#6b77e8"/>
      <path id="XMLID_612_" d="M175.606,177.547V205.51l22.42,11.21,2.989-25.191-2.989-25.191-22.42,11.21Z" transform="translate(-175.606 -143.786)" fill="#6b77e8"/>
    </g>
    <path id="XMLID_611_" d="M273.026,205.509V177.546l-22.42-11.21v50.383Z" transform="translate(-183.455 -116.612)" fill="#615ad3"/>
    <path id="XMLID_610_" d="M205.606,206.6v16.878l13.452,6.726,2.989-15.165-2.989-15.165L205.606,206.6Z" transform="translate(-151.907 -140.127)" fill="#979fef"/>
    <path id="XMLID_609_" d="M264.058,223.481V206.6l-13.452-6.726v30.33Z" transform="translate(-183.455 -140.127)" fill="#6b77e8"/>
  </g>
</svg>
