<svg xmlns="http://www.w3.org/2000/svg" width="119.846" height="119.835" viewBox="0 0 119.846 119.835">
  <g id="Bathroom" opacity="0.6">
    <g id="Group_62" data-name="Group 62" transform="translate(0)">
      <path id="Path_225" data-name="Path 225" d="M26,13H63.448V59.81H26Z" transform="translate(22.694 11.341)" fill="#cef0f7"/>
      <g id="Group_61" data-name="Group 61">
        <g id="Group_57" data-name="Group 57" transform="translate(0.011)">
          <g id="Group_55" data-name="Group 55" transform="translate(46.81 33.704)">
            <path id="Path_226" data-name="Path 226" d="M29,18h3.745v7.49H29Z" transform="translate(-21.51 -18)"/>
            <path id="Path_227" data-name="Path 227" d="M29,24h3.745v3.745H29Z" transform="translate(-21.51 -12.766)"/>
            <path id="Path_228" data-name="Path 228" d="M29,34h3.745v3.745H29Z" transform="translate(-21.51 -4.041)"/>
            <path id="Path_229" data-name="Path 229" d="M37,34h3.745v3.745H37Z" transform="translate(-14.531 -4.041)"/>
            <path id="Path_230" data-name="Path 230" d="M29,28h3.745v7.49H29Z" transform="translate(-21.51 -9.276)"/>
            <path id="Path_231" data-name="Path 231" d="M33,22h3.745v7.49H33Z" transform="translate(-18.021 -14.51)"/>
            <path id="Path_232" data-name="Path 232" d="M33,28h3.745v3.745H33Z" transform="translate(-18.021 -9.276)"/>
            <path id="Path_233" data-name="Path 233" d="M33,32h3.745V43.234H33Z" transform="translate(-18.021 -5.786)"/>
            <path id="Path_234" data-name="Path 234" d="M41,22h3.745v7.49H41Z" transform="translate(-11.041 -14.51)"/>
            <path id="Path_235" data-name="Path 235" d="M41,28h3.745v3.745H41Z" transform="translate(-11.041 -9.276)"/>
            <path id="Path_236" data-name="Path 236" d="M41,32h3.745V43.234H41Z" transform="translate(-11.041 -5.786)"/>
            <path id="Path_237" data-name="Path 237" d="M37,18h3.745v7.49H37Z" transform="translate(-14.531 -18)"/>
            <path id="Path_238" data-name="Path 238" d="M37,24h3.745v3.745H37Z" transform="translate(-14.531 -12.766)"/>
            <path id="Path_239" data-name="Path 239" d="M37,28h3.745v7.49H37Z" transform="translate(-14.531 -9.276)"/>
            <path id="Path_240" data-name="Path 240" d="M45,34h3.745v3.745H45Z" transform="translate(-7.552 -4.041)"/>
            <path id="Path_241" data-name="Path 241" d="M45,18h3.745v7.49H45Z" transform="translate(-7.552 -18)"/>
            <path id="Path_242" data-name="Path 242" d="M45,24h3.745v3.745H45Z" transform="translate(-7.552 -12.766)"/>
            <path id="Path_243" data-name="Path 243" d="M45,28h3.745v7.49H45Z" transform="translate(-7.552 -9.276)"/>
            <path id="Path_244" data-name="Path 244" d="M41,18h3.745v3.745H41Z" transform="translate(-11.041 -18)"/>
            <path id="Path_245" data-name="Path 245" d="M33,18h3.745v3.745H33Z" transform="translate(-18.021 -18)"/>
            <path id="Path_246" data-name="Path 246" d="M25,22h3.745v7.49H25Z" transform="translate(-25 -14.51)"/>
            <path id="Path_247" data-name="Path 247" d="M25,28h3.745v3.745H25Z" transform="translate(-25 -9.276)"/>
            <path id="Path_248" data-name="Path 248" d="M25,32h3.745V43.234H25Z" transform="translate(-25 -5.786)"/>
            <path id="Path_249" data-name="Path 249" d="M25,18h3.745v3.745H25Z" transform="translate(-25 -18)"/>
          </g>
          <g id="Group_56" data-name="Group 56">
            <path id="Path_250" data-name="Path 250" d="M71.724,68.235H53L58.617,57h7.49Z" transform="translate(46.238 49.728)" fill="#fcb641"/>
            <path id="Path_251" data-name="Path 251" d="M53.086,18.49H25V14.745A3.745,3.745,0,0,1,28.745,11h33.7a3.745,3.745,0,0,1,3.745,3.745V18.49Z" transform="translate(21.81 9.597)" fill="#9bc53d"/>
            <path id="Path_252" data-name="Path 252" d="M36.745,7H40.49a3.745,3.745,0,0,1,3.745,3.745V14.49H33V10.745A3.745,3.745,0,0,1,36.745,7Z" transform="translate(28.79 6.107)" fill="#fcb641"/>
            <path id="Path_253" data-name="Path 253" d="M119.835,117.923V116.09h-.715l-5.089-10.2a1.872,1.872,0,0,0-1.685-1.035h-1.872V48.683h5.617V44.938h-5.617V9.362A9.373,9.373,0,0,0,101.111,0H74.9a9.373,9.373,0,0,0-9.362,9.362v1.872a5.617,5.617,0,0,0-5.617,5.617v1.872H50.555a5.617,5.617,0,0,0-5.617,5.617v3.745a1.872,1.872,0,0,0,1.872,1.872H74.9V26.214H48.683V24.341a1.872,1.872,0,0,1,1.872-1.872h33.7a1.872,1.872,0,0,1,1.872,1.872v1.872h-7.49v3.745H88a1.872,1.872,0,0,0,1.872-1.872V24.341a5.617,5.617,0,0,0-5.617-5.617H74.9V16.852a5.617,5.617,0,0,0-5.617-5.617V9.362A5.617,5.617,0,0,1,74.9,3.745h26.214a5.617,5.617,0,0,1,5.617,5.617V44.938H97.366v3.745h9.362V74.9h-5.617V71.152H97.366V82.386h3.745V78.642h5.617v26.214h-1.872a1.872,1.872,0,0,0-1.685,1.035l-5.089,10.2H0v3.745H119.835ZM71.152,16.852v1.872h-7.49V16.852a1.872,1.872,0,0,1,1.872-1.872H69.28A1.872,1.872,0,0,1,71.152,16.852Zm31.116,99.238,3.745-7.49h5.175l3.745,7.49Z"/>
          </g>
        </g>
        <g id="Group_59" data-name="Group 59" transform="translate(0 63.662)">
          <g id="Group_58" data-name="Group 58" transform="translate(5.628 5.617)">
            <path id="Path_254" data-name="Path 254" d="M3,37H25.469V74.448H3Z" transform="translate(-3 -37)" fill="#9bc53d"/>
            <path id="Path_255" data-name="Path 255" d="M3,49H25.469v7.49H3Z" transform="translate(-3 -26.531)" fill="#fcb641"/>
          </g>
          <path id="Path_256" data-name="Path 256" d="M33.709,34v3.524l-33.715.221L.016,41.49l3.734-.024v35.6a1.872,1.872,0,0,0,1.872,1.872H28.092a1.872,1.872,0,0,0,1.872-1.872V41.3l3.745-.024v3.956h3.745V34Zm-7.49,33.7H7.495V63.959H26.219ZM7.495,60.214V41.49H26.219V60.214Zm0,14.979V71.448H26.219v3.745Z" transform="translate(0.006 -34)"/>
        </g>
        <g id="Group_60" data-name="Group 60" transform="translate(3.756 9.362)">
          <ellipse id="Ellipse_40" data-name="Ellipse 40" cx="12.5" cy="19" rx="12.5" ry="19" transform="translate(3.012 3.693)" fill="#ade6f1"/>
          <path id="Path_257" data-name="Path 257" d="M25.562,9.561,3.207,28.386a25.424,25.424,0,0,0,3.428,9.628L28.771,19.371a26.126,26.126,0,0,0-3.209-9.81Z" transform="translate(-0.947 -1.021)" fill="#cef0f7"/>
          <path id="Path_258" data-name="Path 258" d="M16.979,49.938C8.58,49.938,2,40.069,2,27.469S8.58,5,16.979,5s14.979,9.87,14.979,22.469S25.379,49.938,16.979,49.938Zm0-41.193c-6.089,0-11.235,8.574-11.235,18.724S10.89,46.193,16.979,46.193s11.235-8.574,11.235-18.724S23.068,8.745,16.979,8.745Z" transform="translate(-2 -5)"/>
          <path id="Path_259" data-name="Path 259" d="M0,0H14.624V3.745H0Z" transform="matrix(0.768, -0.64, 0.64, 0.768, 6.288, 21.018)"/>
          <path id="Path_260" data-name="Path 260" d="M0,0H14.624V3.745H0Z" transform="matrix(0.768, -0.64, 0.64, 0.768, 10.03, 30.377)"/>
        </g>
      </g>
    </g>
  </g>
</svg>
