<svg xmlns="http://www.w3.org/2000/svg" width="512" height="512.001" viewBox="0 0 512 512.001">
  <g id="Bricks" transform="translate(-508 -1093)">
    <path id="Path_305" data-name="Path 305" d="M324.261,974.916c1.155,124.744,0,128,0,128H567.882s-6.446-6.92-12.158-13.867c-1.4-1.712-7.549-11.823-10.667-12.8-13.855-4.339-49.869-35.2-53.332-35.2s-10.438-24.912-12.747-41.183,0-24.949,0-24.949Z" transform="translate(195.733 131.867)" fill="#e91515"/>
    <path id="Path_306" data-name="Path 306" d="M319.994,1156.247c1.067,44.154,0,129.064,0,129.064H497.058V1156.247Z" transform="translate(200 126.533)" fill="#e91515"/>
    <path id="Path_307" data-name="Path 307" d="M319.994,1156.247c.451,44.154,0,129.064,0,129.064h74.927V1156.247Z" transform="translate(200 303.597)" fill="#e91515"/>
    <path id="Path_308" data-name="Path 308" d="M582.27,1154.113c-6.37-1.067-25.48,0-25.48,0v121.6h20.384s10.192-61.866,12.74-61.866,5.1-25.6,0-30.933S588.64,1155.18,582.27,1154.113Z" transform="translate(197 134.325)" fill="#e91515"/>
    <path id="Path_309" data-name="Path 309" d="M454.392,1334.377v119.465h178.13s-39.211-52.266-33.609-52.266-17.925-43.733-15.684-48,0-19.2,0-19.2Z" transform="translate(196.8 134)" fill="#e91515"/>
    <g id="brickwall" transform="translate(508 1093)">
      <path id="Path_300" data-name="Path 300" d="M17.066,332.8H187.734A17.086,17.086,0,0,0,204.8,315.735V196.266A17.086,17.086,0,0,0,187.734,179.2H17.066A17.086,17.086,0,0,0,0,196.266V315.735A17.086,17.086,0,0,0,17.066,332.8Zm0-136.535H187.734l.008,119.469H17.066Zm0,0"/>
      <path id="Path_301" data-name="Path 301" d="M17.066,512H85.332A17.084,17.084,0,0,0,102.4,494.934V375.465A17.086,17.086,0,0,0,85.332,358.4H17.066A17.089,17.089,0,0,0,0,375.465V494.934A17.086,17.086,0,0,0,17.066,512Zm0-136.535H85.332l.012,119.469H17.066Zm0,0"/>
      <path id="Path_302" data-name="Path 302" d="M494.934,0H17.067A17.086,17.086,0,0,0,0,17.066V136.535A17.089,17.089,0,0,0,17.067,153.6H252.032a173.269,173.269,0,0,1,12.352,25.6H247.466A17.089,17.089,0,0,0,230.4,196.266V315.735A17.089,17.089,0,0,0,247.466,332.8h16.426c-.117,3.855-.344,7.73-.3,11.539.059,4.516.277,9.246.57,14.059H145.067A17.089,17.089,0,0,0,128,375.465V494.934A17.086,17.086,0,0,0,145.067,512H494.934A17.086,17.086,0,0,0,512,494.934V17.067A17.086,17.086,0,0,0,494.934,0ZM17.067,17.066H159.938A229.2,229.2,0,0,0,161.1,52.9c4.723,24.5,23.848,36.871,40.723,47.789l2.742,1.773a144.794,144.794,0,0,1,36.145,34.074H17.066Zm230.4,179.2h22.391a177.825,177.825,0,0,1,6.285,43.664,166.179,166.179,0,0,1-5.406,39.043c-1.27,5.754-2.543,11.555-3.594,17.531-1.109,6.25-1.836,12.719-2.383,19.23H247.465Zm-102.4,179.2H265.86a235.257,235.257,0,0,0,47.887,119.469H145.067ZM494.934,494.933H336.383a214.506,214.506,0,0,1-54.559-128.77c-.691-7.652-1.082-15.07-1.164-22.043-.086-6.367.09-12.867.512-19.445a202.2,202.2,0,0,1,2.773-25.207c1.02-5.738,2.242-11.309,3.461-16.832a181.782,181.782,0,0,0,5.809-42.977,195.935,195.935,0,0,0-8.68-54.488,193.4,193.4,0,0,0-20.328-44.586A165.647,165.647,0,0,0,213.883,88.16l-2.793-1.809C195.059,75.976,181.2,67.019,177.891,49.9a264.764,264.764,0,0,1-.973-32.836H494.934Zm0,0"/>
      <path id="Path_303" data-name="Path 303" d="M195,48.039c2.559,8.867,11.3,14.891,25.359,23.977l2.883,1.871a181.992,181.992,0,0,1,55.4,57.605,211.437,211.437,0,0,1,22.246,48.793,8.534,8.534,0,1,0,16.281-5.121,228.68,228.68,0,0,0-24.023-52.684,198.934,198.934,0,0,0-60.59-62.895l-2.922-1.895a78.052,78.052,0,0,1-18.02-13.867l-.133-1.723a8.534,8.534,0,1,0-17.031,1.133c.086,1.223.168,2.332.254,3.266a9,9,0,0,0,.3,1.539Zm0,0"/>
      <path id="Path_304" data-name="Path 304" d="M310.266,239.359a200.114,200.114,0,0,1-6.309,47.473c-1.133,5.129-2.266,10.289-3.2,15.594a186.313,186.313,0,0,0-2.566,23.469c-.383,6-.543,12.066-.469,18.023.078,6.531.445,13.445,1.094,20.605a201.424,201.424,0,0,0,42.465,110.246A8.534,8.534,0,1,0,354.434,463.9a187.132,187.132,0,0,1-38.625-100.949c-.6-6.68-.937-13.152-1.016-19.246q-.117-8.3.441-16.852a170.514,170.514,0,0,1,2.324-21.457c.9-5.059,1.992-10,3.184-15.43a212,212,0,0,0,6.59-50.891,8.528,8.528,0,0,0-8.531-8.391h-.141a8.537,8.537,0,0,0-8.395,8.672Zm0,0"/>
    </g>
  </g>
</svg>
