<svg xmlns="http://www.w3.org/2000/svg" xmlns:xlink="http://www.w3.org/1999/xlink" width="182.076" height="279.617" viewBox="0 0 182.076 279.617">
  <defs>
    <clipPath id="clip-path">
      <path d="M0,12.12,170.8,0V279.616L0,267.542Z" fill="none"/>
    </clipPath>
    <clipPath id="clip-path-2">
      <rect x="1" y="7" width="16.579" height="274.57" fill="none"/>
    </clipPath>
  </defs>
  <g id="door" transform="translate(-301.152 -1741.555)">
    <g id="Scroll_Group_1" data-name="Scroll Group 1" transform="translate(301.152 1741.555)" clip-path="url(#clip-path)" style="isolation: isolate">
      <g id="door-2" data-name="door" transform="translate(0 -0.072)">
        <g id="Path_310" data-name="Path 310" transform="translate(0 0)" fill="#40050b" opacity="0.89">
          <path d="M1.142,12.589C.782,62.845.6,103.84.535,137.068s-.022,58.7.067,77.89S.827,247.077.939,255.2s.2,11.45.2,11.45l170.163,11.931V.56Z" stroke="none"/>
          <path d="M 171.8104248046875 279.1413269042969 L 171.3051605224609 279.105712890625 L 1.141810536384583 267.1294250488281 L 0.7328426837921143 267.1006469726563 L 0.7202850580215454 266.6358947753906 C 0.7193865776062012 266.6026916503906 0.6963099241256714 265.7271118164063 0.6594279408454895 263.8394165039063 C 0.622547447681427 261.9517517089844 0.5718566179275513 259.0521545410156 0.5157275199890137 254.9704742431641 C 0.4596019387245178 250.8891906738281 0.3980466723442078 245.6260528564453 0.3394018709659576 239.01123046875 C 0.2807608842849731 232.3969573974609 0.2250368744134903 224.4310150146484 0.1805886179208755 214.9433441162109 C 0.1395810693502426 206.1884307861328 0.1063573509454727 195.6526794433594 0.0911950021982193 183.1529083251953 C 0.07602560520172119 170.6533508300781 0.07891638576984406 156.1893615722656 0.1101534441113472 139.5772247314453 C 0.1413842886686325 122.9645004272461 0.2009580284357071 104.2025527954102 0.2991684079170227 83.10643005371094 C 0.3973894417285919 62.00788116455078 0.5342566967010498 38.57284927368164 0.7200878262519836 12.61522197723389 L 0.7234920859336853 12.14019107818604 L 1.141810536384583 12.11051845550537 L 171.3051605224609 0.03580765798687935 L 171.8104248046875 0 L 171.8104248046875 0.5239489078521729 L 171.8104248046875 278.6173706054688 L 171.8104248046875 279.1413269042969 Z M 1.552111625671387 266.2008056640625 L 170.8001403808594 278.0228881835938 L 170.8001403808594 1.119086623191833 L 1.560330152511597 13.03839588165283 C 1.375225067138672 38.93422317504883 1.238902568817139 62.31554794311523 1.141094326972961 83.36761474609375 C 1.043296456336975 104.4174041748047 0.9840031862258911 123.1401062011719 0.9529476761817932 139.7200469970703 C 0.9219005703926086 156.2993011474609 0.9190948009490967 170.7369995117188 0.9342929720878601 183.2158660888672 C 0.9494914412498474 195.6949615478516 0.982687771320343 206.2156524658203 1.023653268814087 214.9605407714844 C 1.063619494438171 223.4914855957031 1.112708210945129 230.7925109863281 1.164825439453125 236.9870452880859 C 1.216953039169312 243.1819305419922 1.272124290466309 248.2704620361328 1.324265360832214 252.3758544921875 C 1.376409411430359 256.4814758300781 1.425515174865723 259.6041870117188 1.465513825416565 261.8671875 C 1.505521416664124 264.1303100585938 1.536413192749023 265.5336608886719 1.552111625671387 266.2008056640625 Z" stroke="none" fill="#707070"/>
        </g>
        <g id="Path_312" data-name="Path 312" transform="translate(85.869 33.408)" fill="#fff">
          <path d="M.462,3.1V49.3l45.27-1.376V7.574Z" stroke="none"/>
          <path d="M 46.21805953979492 48.42001342773438 L 45.73291015625 48.43456268310547 L 0.4624921381473541 49.79868316650391 L 0 49.81268310546875 L 0 49.31153106689453 L 0 3.126307725906372 L 0 2.549056529998779 L 0.5274485349655151 2.601047515869141 L 45.80101776123047 7.062633037567139 L 46.21805953979492 7.103764533996582 L 46.21805953979492 7.54948902130127 L 46.21805953979492 47.9066047668457 L 46.21805953979492 48.42001342773438 Z M 0.925195574760437 48.78202056884766 L 45.24801254272461 47.42293167114258 L 45.24801254272461 8.044700622558594 L 0.925195574760437 3.653103351593018 L 0.925195574760437 48.78202056884766 Z" stroke="none" fill="#707070"/>
        </g>
        <g id="Path_313" data-name="Path 313" transform="translate(31.457 96.12)" fill="rgba(255,255,255,0.6)">
          <path d="M.436,1.533V26.459L44.667,30.29V.509Z" stroke="none"/>
          <path d="M 45.12451553344727 30.82983016967773 L 44.62749481201172 30.78662109375 L 0.3987868428230286 26.94406890869141 L 3.713328987942077e-05 26.90933799743652 L 3.713328987942077e-05 26.46278762817383 L 3.713328987942077e-05 1.543437838554382 L 3.713328987942077e-05 1.056724309921265 L 0.4362564980983734 1.046516418457031 L 44.66679763793945 0.01071132346987724 L 45.12451553344727 0 L 45.12451553344727 0.4986848831176758 L 45.12451553344727 30.28634071350098 L 45.12451553344727 30.82983016967773 Z M 0.8726834058761597 26.00769233703613 L 44.20929336547852 29.74978828430176 L 44.20929336547852 1.018301606178284 L 0.8726834058761597 2.010193824768066 L 0.8726834058761597 26.00769233703613 Z" stroke="none" fill="#707070"/>
        </g>
        <g id="Path_314" data-name="Path 314" transform="translate(85.869 94.82)" fill="rgba(243,243,255,0.6)">
          <path d="M45.733.525V26.8L.462,31.515V1.573Z" stroke="none"/>
          <path d="M 0 32.06631088256836 L 0 31.51842308044434 L 0 1.583586454391479 L 0 1.082437515258789 L 0.4624845087528229 1.071565866470337 L 45.73287963867188 0.0114034740254283 L 46.21802139282227 0 L 46.21802139282227 0.5134103298187256 L 46.21802139282227 26.79961776733398 L 46.21802139282227 27.26928329467773 L 45.77600479125977 27.31518745422363 L 0.5036306977272034 32.01403045654297 L 0 32.06631088256836 Z M 0.925195574760437 2.063600063323975 L 0.925195574760437 30.96354866027832 L 45.24798202514648 26.33955764770508 L 45.24798202514648 1.049107313156128 L 0.925195574760437 2.063600063323975 Z" stroke="none" fill="#707070"/>
        </g>
        <g id="Path_315" data-name="Path 315" transform="translate(31.457 36.472)" fill="#fff">
          <path d="M44.667.6V46.544L.436,47.888V9.62Z" stroke="none"/>
          <path d="M 45.12453079223633 47.0284423828125 L 44.66679763793945 47.04218673706055 L 0.4362416565418243 48.37496948242188 L 1.485331631556619e-05 48.38818359375 L 1.485331631556619e-05 47.90147018432617 L 1.485331631556619e-05 9.642891883850098 L 1.485331631556619e-05 9.218324661254883 L 0.3770397901535034 9.141183853149414 L 44.60474014282227 0.1061359718441963 L 45.12453079223633 0 L 45.12453079223633 0.5716126561164856 L 45.12453079223633 18.21904373168945 L 45.12453079223633 46.52975845336914 L 45.12453079223633 47.0284423828125 Z M 0.8726760149002075 47.38797760009766 L 44.20930862426758 46.05916213989258 L 44.20930862426758 18.26067352294922 L 44.20930862426758 1.193170070648193 L 0.8726760149002075 10.02291202545166 L 0.8726760149002075 47.38797760009766 Z" stroke="none" fill="#707070"/>
        </g>
        <g id="Path_316" data-name="Path 316" transform="translate(125.579 125.31)" fill="#f7e9e9">
          <path d="M30.816,23.334c-2.768-.138-5.678-.232-8.537-.376s-5.651-.336-8.213-.67A31.521,31.521,0,0,1,7.3,20.774a8.6,8.6,0,0,1-4.232-2.905A4.9,4.9,0,0,1,1.972,14.82a2.523,2.523,0,0,1,.974-1.791,5.027,5.027,0,0,1,1.626-.848,5.9,5.9,0,0,1,.859-.214s1.462-.108,3.7-.255,5.256-.332,8.357-.485,6.306-.275,8.876-.292a19.772,19.772,0,0,1,5.122.335,8.323,8.323,0,0,1,2.469,2.4A14.75,14.75,0,0,1,36.219,17.9a4.313,4.313,0,0,1-.271,3.932C35.175,22.854,33.592,23.473,30.816,23.334Z" stroke="none"/>
          <path d="M 6.173351764678955 20.86248970031738 C 5.770678043365479 20.68036651611328 5.397194385528564 20.48871231079102 5.051845073699951 20.28673553466797 C 4.706616878509521 20.0848331451416 4.389483451843262 19.87260055541992 4.099396228790283 19.64925193786621 C 3.809395790100098 19.42597389221191 3.546407461166382 19.19157028198242 3.30938982963562 18.94525146484375 C 3.072429656982422 18.69899559020996 2.861415863037109 18.44081878662109 2.675309658050537 18.16992568969727 C 2.392925500869751 17.75893020629883 2.160528421401978 17.36093521118164 1.978225708007813 16.97653198242188 C 1.795957088470459 16.59220314025879 1.663744688034058 16.22142028808594 1.581713080406189 15.86477279663086 C 1.499687790870667 15.50815391540527 1.467826128005981 15.16563701629639 1.486264824867249 14.83781147003174 C 1.504704713821411 14.50997829437256 1.573448777198792 14.19681072235107 1.692652702331543 13.89890193939209 C 1.891884326934814 13.40099048614502 2.213389873504639 13.00066375732422 2.585508584976196 12.67991828918457 C 2.957770586013794 12.35904788970947 3.380723714828491 12.1177864074707 3.782561540603638 11.93819999694824 C 4.184567928314209 11.7585391998291 4.565423965454102 11.64061641693115 4.853154182434082 11.56651020050049 C 5.140969276428223 11.49238109588623 5.335547924041748 11.46211338043213 5.364843368530273 11.45775890350342 L 5.381517887115479 11.45527839660645 L 5.398309230804443 11.45403099060059 C 5.412930965423584 11.4529447555542 5.790261268615723 11.42500782012939 6.443240165710449 11.37898445129395 C 7.096661567687988 11.332932472229 8.026476860046387 11.2687463760376 9.145753860473633 11.19519519805908 C 10.26632690429688 11.12155914306641 11.57723617553711 11.03850555419922 12.99117946624756 10.95484352111816 C 14.40718269348145 10.87105846405029 15.92681694030762 10.78664302825928 17.46208381652832 10.7104663848877 C 20.60061073303223 10.55473613739014 23.03578567504883 10.47067451477051 24.92839050292969 10.43502998352051 C 26.82466697692871 10.39931488037109 28.17414283752441 10.41225051879883 29.14134407043457 10.45026111602783 C 30.10950469970703 10.48830986022949 30.69387817382813 10.55145454406738 31.06090354919434 10.61601257324219 C 31.42807006835938 10.68059349060059 31.57756614685059 10.74655914306641 31.67653274536133 10.79022979736328 C 31.91069030761719 10.89355373382568 32.18048858642578 11.07360363006592 32.47130966186523 11.31446361541748 C 32.7622184753418 11.55539608001709 33.07417297363281 11.85718727111816 33.39253234863281 12.20390319824219 C 33.71099472045898 12.55073356628418 34.03587341308594 12.9425220489502 34.35248565673828 13.36331272125244 C 34.66920852661133 13.78423690795898 34.97765350341797 14.23417472839355 35.26313018798828 14.69712352752686 C 35.47113418579102 15.03443050384521 35.71005249023438 15.4491024017334 35.94414901733398 15.91514778137207 C 36.17830276489258 16.38130378723145 36.40761184692383 16.89885330200195 36.59630966186523 17.44173812866211 C 36.78503799438477 17.98472785949707 36.93311309814453 18.55302047729492 37.00469970703125 19.1204719543457 C 37.07630157470703 19.68796730041504 37.07138824462891 20.25453186035156 36.95417022705078 20.79396629333496 C 36.89687347412109 21.05764007568359 36.81531143188477 21.30536460876465 36.70975494384766 21.53678131103516 C 36.60421752929688 21.76817893981934 36.47469329833984 21.98326110839844 36.32146072387695 22.18167877197266 C 36.16825103759766 22.38006401062012 35.99135971069336 22.5617847442627 35.79105377197266 22.72648620605469 C 35.59079360961914 22.89115715026855 35.36714553833008 23.03881072998047 35.12038421630859 23.16909408569336 C 34.86159515380859 23.30573081970215 34.57643127441406 23.42259979248047 34.26553344726563 23.51959991455078 C 33.95473861694336 23.61656951904297 33.61824035644531 23.69368171691895 33.25670623779297 23.75084114074707 C 32.89530944824219 23.80797958374023 32.5089111328125 23.84518241882324 32.09816741943359 23.86235237121582 C 31.68759346008301 23.87951469421387 31.25272750854492 23.87666702270508 30.79422187805176 23.85371589660645 C 30.4566707611084 23.83682060241699 30.11506080627441 23.82048988342285 29.77117156982422 23.80461120605469 C 29.42740631103516 23.78874206542969 29.08136177062988 23.7733268737793 28.73481369018555 23.75825691223145 C 28.38838577270508 23.74319076538086 28.04145240783691 23.72846794128418 27.6957836151123 23.7139835357666 C 27.35023880004883 23.69950485229492 27.00595283508301 23.68526077270508 26.66469192504883 23.67114067077637 C 24.71893501281738 23.59063529968262 22.76053428649902 23.50960731506348 20.84331703186035 23.3994140625 C 18.92986106872559 23.2894344329834 17.0572681427002 23.1503963470459 15.27874660491943 22.95379257202148 C 13.50347137451172 22.75755310058594 11.8215856552124 22.50391960144043 10.2857666015625 22.16448593139648 C 8.752376556396484 21.82558822631836 7.364133834838867 21.40105819702148 6.173351764678955 20.86248970031738 Z M 5.484147548675537 12.47634315490723 C 5.435482501983643 12.48454189300537 5.264426708221436 12.51528263092041 5.026524543762207 12.57866191864014 C 4.788681030273438 12.64202880859375 4.484056949615479 12.73800659179688 4.168144226074219 12.87668514251709 C 3.852335214614868 13.01531600952148 3.525253295898438 13.19661617279053 3.242285490036011 13.43068313598633 C 2.95940089225769 13.66468143463135 2.720578193664551 13.95143413543701 2.581125736236572 14.30108642578125 C 2.49767804145813 14.51032066345215 2.453498125076294 14.73588371276855 2.448452234268188 14.97731018066406 C 2.44340705871582 15.21873569488525 2.477494716644287 15.47604465484619 2.550593137741089 15.74877834320068 C 2.623696804046631 16.02153015136719 2.735821962356567 16.30973052978516 2.886855125427246 16.6129264831543 C 3.037911891937256 16.91616249084473 3.22790002822876 17.23442459106445 3.45671558380127 17.5672492980957 C 3.614248037338257 17.79640769958496 3.797428607940674 18.01767730712891 4.00582218170166 18.23073768615723 C 4.214260578155518 18.4438419342041 4.447933197021484 18.64873695373535 4.706405639648438 18.8450870513916 C 4.964946269989014 19.04148864746094 5.248312950134277 19.22934532165527 5.556076526641846 19.4083251953125 C 5.863938331604004 19.58736228942871 6.196228504180908 19.75751876831055 6.552516937255859 19.91845703125 C 7.70235013961792 20.43784141540527 9.054248809814453 20.84747505187988 10.55477046966553 21.17470169067383 C 12.0576171875 21.50243186950684 13.71000576019287 21.74759864807129 15.4581298828125 21.93754196166992 C 17.20940399169922 22.1278247833252 19.05710029602051 22.26271820068359 20.9468879699707 22.36964416503906 C 22.84034729003906 22.47677993774414 24.77621841430664 22.55584907531738 26.69954681396484 22.6344051361084 C 27.04132652282715 22.64836502075195 27.38613700866699 22.66245079040527 27.73223876953125 22.67676734924316 C 28.07846450805664 22.69109344482422 28.42599105834961 22.70565223693848 28.77306938171387 22.72056198120117 C 29.12027931213379 22.73547554016113 29.4670467376709 22.75074005126953 29.81163597106934 22.76646614074707 C 30.15634727478027 22.78219985961914 30.49887084960938 22.79839134216309 30.83746528625488 22.81516075134277 C 31.59930038452148 22.8528881072998 32.27903747558594 22.83389663696289 32.87574005126953 22.75845527648926 C 33.47280883789063 22.6829719543457 33.98664855957031 22.55098152160645 34.41637420654297 22.3627872467041 C 34.84629058837891 22.17451477050781 35.19194412231445 21.93001747131348 35.4525032043457 21.62964057922363 C 35.7131233215332 21.32917404174805 35.88855743408203 20.97284698486328 35.97800445556641 20.56101608276367 C 36.04883575439453 20.23487281799316 36.06650543212891 19.86940956115723 36.03326797485352 19.4724006652832 C 36.00003814697266 19.07540702819824 35.91591644287109 18.64690971374512 35.78318786621094 18.19468879699707 C 35.65047836303711 17.74253082275391 35.46918487548828 17.26670074462891 35.24161529541016 16.77498245239258 C 35.01408767700195 16.28337478637695 34.74033355712891 15.77593421936035 34.42264175415039 15.26043319702148 C 34.14056396484375 14.80271434783936 33.84445571899414 14.37235736846924 33.54874420166016 13.97979164123535 C 33.25311660766602 13.58734607696533 32.9578857421875 13.23266792297363 32.67743682861328 12.92616081237793 C 32.39706802368164 12.61974048614502 32.1314697265625 12.36145305633545 31.89500617980957 12.1616849899292 C 31.65859603881836 11.96196174621582 31.45129585266113 11.82071685791016 31.28746032714844 11.74832725524902 C 31.15751457214355 11.69091320037842 30.90421676635742 11.62872695922852 30.42781829833984 11.57604312896729 C 29.95165061950684 11.52338600158691 29.25281524658203 11.48024559020996 28.2321605682373 11.46087646484375 C 27.21256828308105 11.44152641296387 25.87249565124512 11.44590950012207 24.11405754089355 11.48819351196289 C 22.35877227783203 11.53039932250977 20.18812942504883 11.61033344268799 17.50635719299316 11.74197292327881 C 16.01824378967285 11.81502246856689 14.54486465454102 11.895827293396 13.16664218902588 11.97633171081543 C 11.79037475585938 12.05672264099121 10.50872707366943 12.13682842254639 9.401498794555664 12.20864200592041 C 8.295534133911133 12.28037357330322 7.363194465637207 12.34385776519775 6.683924674987793 12.39112377166748 C 6.005133628845215 12.43835639953613 5.5787034034729 12.46942043304443 5.484147548675537 12.47634315490723 Z" stroke="none" fill="#707070"/>
        </g>
        <g id="lavender" transform="translate(31.893 164.703)" opacity="0.05">
          <path id="Path_317" data-name="Path 317" d="M54.114,3.419A6.178,6.178,0,0,0,52,1.4,5.747,5.747,0,0,0,49.4.648a5.6,5.6,0,0,0-2.626.524,5.838,5.838,0,0,0-2.2,1.817c-2.683,3.6-4.461,6.017-5.7,7.689s-1.932,2.6-2.449,3.217a9.345,9.345,0,0,1-1.369,1.358c-.515.43-1.207.98-2.432,2.078l2.943-7.985a6.613,6.613,0,0,0-.493-5.616,6.2,6.2,0,0,0-1.871-2.019A5.607,5.607,0,0,0,30.575.766a5.4,5.4,0,0,0-2.72.442,5.738,5.738,0,0,0-2.112,1.634A6.29,6.29,0,0,0,24.524,5.31a6.636,6.636,0,0,0-.04,2.949l2.97,14.129q-.709.755-1.4,1.53t-1.369,1.567q-.676.793-1.335,1.6t-1.3,1.641l1.689-6.821a6.616,6.616,0,0,0-1.074-5.5,6.051,6.051,0,0,0-2.044-1.782,5.45,5.45,0,0,0-2.675-.635,5.308,5.308,0,0,0-2.617.749,5.752,5.752,0,0,0-1.9,1.859,6.363,6.363,0,0,0-.935,2.582,6.669,6.669,0,0,0,.27,2.923l4.378,13.612c-.425.669-.832,1.324-1.225,1.975s-.772,1.3-1.144,1.948-.736,1.307-1.1,1.978-.722,1.356-1.085,2.065c.187-1.752.326-3.042.429-4s.169-1.579.213-2,.063-.634.072-.775.007-.208.007-.33a6.671,6.671,0,0,0-.556-2.676,6.426,6.426,0,0,0-1.489-2.116A5.77,5.77,0,0,0,9.116,30.5a5.284,5.284,0,0,0-5.6,1.525,6.483,6.483,0,0,0-1.447,2.856,4.606,4.606,0,0,0,.081,2.621,1.405,1.405,0,0,0,1.529,1,1.362,1.362,0,0,0,.557-.2,1.466,1.466,0,0,0,.423-.4,1.62,1.62,0,0,0,.249-.549,1.738,1.738,0,0,0,.035-.64,3.114,3.114,0,0,1,.087-1.232,2.93,2.93,0,0,1,.532-1.047,2.6,2.6,0,0,1,.893-.718,2.487,2.487,0,0,1,1.169-.245,2.548,2.548,0,0,1,1.112.3,2.853,2.853,0,0,1,.887.736,3.1,3.1,0,0,1,.555,1.057,3.19,3.19,0,0,1,.114,1.258l-1.006,9.43L7.324,42.113a1.675,1.675,0,0,0-.373-.513,1.529,1.529,0,0,0-.5-.313,1.4,1.4,0,0,0-.568-.089,1.36,1.36,0,0,0-.568.159,1.439,1.439,0,0,0-.459.388,1.6,1.6,0,0,0-.271.535,1.733,1.733,0,0,0-.064.614,1.764,1.764,0,0,0,.165.622L8.736,52.09A119.268,119.268,0,0,0,4.268,65.11a115.616,115.616,0,0,0-4.2,27.374,122.388,122.388,0,0,0,.381,14.4,1.808,1.808,0,0,0,.154.592,1.771,1.771,0,0,0,.326.487,1.627,1.627,0,0,0,.454.339,1.436,1.436,0,0,0,.54.149,1.328,1.328,0,0,0,.613-.1A1.357,1.357,0,0,0,3.02,108a1.514,1.514,0,0,0,.307-.541,1.7,1.7,0,0,0,.074-.669,118.9,118.9,0,0,1-.375-13.894A112.882,112.882,0,0,1,4.26,79.449,111.691,111.691,0,0,1,7.054,66.431a115.074,115.074,0,0,1,4.308-12.607l7.838.9,3.833.439c.771.088,1.116.126,1.287.144a2.318,2.318,0,0,0,.239.016,5.265,5.265,0,0,0,2.555-.533,5.588,5.588,0,0,0,1.967-1.625,6.146,6.146,0,0,0,1.114-2.4,6.779,6.779,0,0,0-1.247-5.549,6.17,6.17,0,0,0-2.115-1.74,5.564,5.564,0,0,0-2.574-.593,5.3,5.3,0,0,0-2.624.753L13.8,48.278q.608-1.281,1.263-2.57t1.362-2.582q.706-1.293,1.464-2.586t1.569-2.582c3.448.912,6,1.59,7.9,2.095s3.147.835,3.984,1.051,1.268.318,1.543.368a3.376,3.376,0,0,0,.611.055,5.329,5.329,0,0,0,2.338-.451,5.67,5.67,0,0,0,1.915-1.389,6.058,6.058,0,0,0,1.241-2.122,6.561,6.561,0,0,0,.316-2.646,6.686,6.686,0,0,0-.886-2.843,6.345,6.345,0,0,0-1.889-2.038,5.761,5.761,0,0,0-2.506-.969,5.392,5.392,0,0,0-2.738.357L22.959,32.8q.743-1.018,1.525-2.026t1.6-2q.822-1,1.683-1.978t1.766-1.948c3.4,1.32,5.922,2.308,7.813,3.046s3.152,1.229,4.022,1.553a15.039,15.039,0,0,0,1.7.563,3.853,3.853,0,0,0,.882.09,5.387,5.387,0,0,0,3.674-1.249,6.29,6.29,0,0,0,1.99-3.176,6.752,6.752,0,0,0-.077-3.86,6.282,6.282,0,0,0-2.516-3.291,1.526,1.526,0,0,0-.58-.237,1.467,1.467,0,0,0-1.136.266,1.559,1.559,0,0,0-.419.471,1.678,1.678,0,0,0-.211.611,1.765,1.765,0,0,0,.274,1.214,1.647,1.647,0,0,0,.452.457,3,3,0,0,1,.576.506,3.064,3.064,0,0,1,.43.633,3.127,3.127,0,0,1,.264.73,3.215,3.215,0,0,1,.078.8,3.038,3.038,0,0,1-.342,1.33,2.878,2.878,0,0,1-.84.985,2.593,2.593,0,0,1-2.517.331l-8.586-3.319,6.194-1.68a1.464,1.464,0,0,0,.547-.283,1.572,1.572,0,0,0,.385-.471,1.691,1.691,0,0,0,.188-.595,1.755,1.755,0,0,0-.044-.654,1.731,1.731,0,0,0-.278-.59,1.632,1.632,0,0,0-.45-.421,1.515,1.515,0,0,0-.562-.213,1.444,1.444,0,0,0-.612.033l-5.177,1.414q.371-.332.748-.66t.76-.654q.383-.325.772-.647t.784-.641l13.316-4.255a5.73,5.73,0,0,0,2.412-1.511,6.252,6.252,0,0,0,1.417-2.4,6.623,6.623,0,0,0-.753-5.645ZM23.163,46.505a2.46,2.46,0,0,1,1.948-.29A2.918,2.918,0,0,1,26.642,47.3a3.3,3.3,0,0,1,.661,1.837,2.887,2.887,0,0,1-.664,1.959,2.723,2.723,0,0,1-.473.456,2.524,2.524,0,0,1-.55.315,2.475,2.475,0,0,1-.608.165,2.585,2.585,0,0,1-.647.007l-8.866-1ZM20.8,21l-2.273,9.2L15.6,21.1a3.054,3.054,0,0,1,.039-2.115A2.816,2.816,0,0,1,16.856,17.6a2.611,2.611,0,0,1,1.765-.312A2.681,2.681,0,0,1,20.3,18.4a3.123,3.123,0,0,1,.6,1.922A3.176,3.176,0,0,1,20.8,21ZM32.434,32.5a2.608,2.608,0,0,1,.629-.167,2.548,2.548,0,0,1,.639,0,2.624,2.624,0,0,1,.627.155,2.83,2.83,0,0,1,.593.312A2.969,2.969,0,0,1,36.139,34.5a3.248,3.248,0,0,1-.1,1.948,2.846,2.846,0,0,1-1.169,1.46,2.5,2.5,0,0,1-1.975.245l-8.767-2.3Zm-3-15.49L27.451,7.587a3.224,3.224,0,0,1-.07-.693,3.094,3.094,0,0,1,.08-.675,3,3,0,0,1,.225-.634,2.959,2.959,0,0,1,.364-.571,2.568,2.568,0,0,1,1.727-.986,2.728,2.728,0,0,1,1.776.448,3.026,3.026,0,0,1,1.19,1.49A3.06,3.06,0,0,1,32.712,8.1ZM51.9,7.948a3.068,3.068,0,0,1-.285.633,2.852,2.852,0,0,1-.408.531,2.724,2.724,0,0,1-1.12.693l-8.7,2.794,5.626-7.535a2.644,2.644,0,0,1,1.725-1.091,2.759,2.759,0,0,1,1.822.379,3.086,3.086,0,0,1,1.27,1.457A3.053,3.053,0,0,1,51.9,7.948Z" transform="translate(44.523 0)" fill="#e3bcbc"/>
          <path id="Path_318" data-name="Path 318" d="M35.7.892a5.232,5.232,0,0,0-1.241.448,5.293,5.293,0,0,0-1.082.737,5.62,5.62,0,0,0-.889,1A6.172,6.172,0,0,0,31.828,4.3c-1.651,4.062-2.739,6.786-3.5,8.674s-1.191,2.938-1.527,3.653a9.537,9.537,0,0,1-.953,1.63c-.376.537-.888,1.233-1.766,2.581l.939-8.291a6.668,6.668,0,0,0-.3-2.87,6.368,6.368,0,0,0-1.374-2.323,5.61,5.61,0,0,0-2.14-1.445,5,5,0,0,0-2.6-.243,5.067,5.067,0,0,0-2.379,1.092,5.761,5.761,0,0,0-1.568,2.069,6.48,6.48,0,0,0-.575,2.639,6.651,6.651,0,0,0,.6,2.8l5.771,12.661q-.482.894-.946,1.8t-.907,1.83q-.444.922-.868,1.857t-.83,1.885l.058-6.9a6.826,6.826,0,0,0-.136-1.422,6.573,6.573,0,0,0-.421-1.329,6.326,6.326,0,0,0-.686-1.193A6.125,6.125,0,0,0,14.8,22.45a5.368,5.368,0,0,0-2.373-1.214,4.908,4.908,0,0,0-2.452.09A5.1,5.1,0,0,0,7.838,22.6,5.812,5.812,0,0,0,6.42,24.929a6.559,6.559,0,0,0-.291,2.756A6.639,6.639,0,0,0,7,30.328L13.948,42.2q-.347,1.064-.673,2.143t-.629,2.172q-.3,1.093-.586,2.2t-.542,2.231l-.761-6.264a6.656,6.656,0,0,0-.937-2.7,6.04,6.04,0,0,0-1.829-1.889,5.208,5.208,0,0,0-2.353-.838,4.791,4.791,0,0,0-2.512.447,5.17,5.17,0,0,0-2,1.682A6.064,6.064,0,0,0,.112,43.8a6.7,6.7,0,0,0,.056,2.71,6.553,6.553,0,0,0,1.208,2.562l8.439,10.9q-.517,3.515-.837,7.153t-.44,7.348q-.12,3.71-.04,7.469t.363,7.516a1.8,1.8,0,0,0,.145.585,1.737,1.737,0,0,0,.313.481,1.565,1.565,0,0,0,.439.335A1.359,1.359,0,0,0,10.28,91a1.257,1.257,0,0,0,.587-.1,1.309,1.309,0,0,0,.467-.342,1.493,1.493,0,0,0,.3-.526,1.7,1.7,0,0,0,.075-.652c-.136-1.8-.248-3.773-.314-5.9s-.087-4.414-.041-6.821.161-4.937.365-7.562.5-5.345.9-8.129L24.637,59.16A4.972,4.972,0,0,0,27.03,58.11,5.6,5.6,0,0,0,28.6,56.055,6.4,6.4,0,0,0,29.17,53.4a6.743,6.743,0,0,0-.631-2.834,6.328,6.328,0,0,0-1.726-2.255A5.541,5.541,0,0,0,24.5,47.182a4.994,4.994,0,0,0-2.483.078,5.071,5.071,0,0,0-2.235,1.376l-6.135,6.386q.278-1.386.6-2.786t.682-2.809q.363-1.41.771-2.827t.865-2.839l12.419.03a5.024,5.024,0,0,0,2.1-.449,5.239,5.239,0,0,0,1.7-1.242,5.819,5.819,0,0,0,1.138-1.862,6.481,6.481,0,0,0,.415-2.306q0-.256-.02-.512t-.059-.51q-.039-.254-.1-.506t-.137-.5a6.2,6.2,0,0,0-2.135-3.121,5.8,5.8,0,0,0-2.9-1.168,3.546,3.546,0,0,0-2.371.474,1.506,1.506,0,0,0-.569,1.809,1.71,1.71,0,0,0,.3.555,1.558,1.558,0,0,0,.447.381,1.4,1.4,0,0,0,.539.174,1.311,1.311,0,0,0,.572-.067,2.335,2.335,0,0,1,1.254-.083,2.653,2.653,0,0,1,1.127.542,3.008,3.008,0,0,1,.813,1.031,3.171,3.171,0,0,1,.313,1.383,3.068,3.068,0,0,1-.2,1.092,2.758,2.758,0,0,1-.539.882,2.488,2.488,0,0,1-.805.589,2.389,2.389,0,0,1-1,.214l-8.512-.006,3.15-2.422a1.457,1.457,0,0,0,.387-.453,1.645,1.645,0,0,0,.187-.568,1.763,1.763,0,0,0-.023-.612,1.739,1.739,0,0,0-.242-.584,1.594,1.594,0,0,0-.425-.443,1.422,1.422,0,0,0-.522-.227,1.306,1.306,0,0,0-1.074.249l-3.165,2.44q.458-1.159.952-2.315t1.027-2.309q.533-1.153,1.1-2.3T22.9,28.752l7.654.923,3.75.452c.757.09,1.1.13,1.271.148a2.263,2.263,0,0,0,.254.017,5.022,5.022,0,0,0,2.449-.532,5.465,5.465,0,0,0,1.9-1.59,6.113,6.113,0,0,0,1.085-2.349,6.638,6.638,0,0,0,.018-2.8,6.556,6.556,0,0,0-1.18-2.643,5.942,5.942,0,0,0-2.028-1.717,5.283,5.283,0,0,0-2.481-.592,5.068,5.068,0,0,0-2.54.73l-6.571,3.92q.265-.407.537-.812t.55-.809q.278-.4.562-.806t.574-.8l11.194-7.343a5.587,5.587,0,0,0,1.033-.874,5.777,5.777,0,0,0,.8-1.094A6.146,6.146,0,0,0,42.259,8.9a6.737,6.737,0,0,0-.171-4.292,6.332,6.332,0,0,0-1.5-2.27A5.629,5.629,0,0,0,38.355,1,5.11,5.11,0,0,0,35.7.892ZM3.482,47.063a3.109,3.109,0,0,1-.575-1.217,3.18,3.18,0,0,1-.027-1.288,2.876,2.876,0,0,1,.482-1.148,2.452,2.452,0,0,1,.951-.8,2.273,2.273,0,0,1,1.192-.21,2.473,2.473,0,0,1,1.116.4,2.867,2.867,0,0,1,.866.9,3.159,3.159,0,0,1,.444,1.282l1.124,9.266ZM21.807,51a2.539,2.539,0,0,1,.4-.338,2.363,2.363,0,0,1,.444-.239,2.3,2.3,0,0,1,.479-.136,2.337,2.337,0,0,1,.5-.03,2.545,2.545,0,0,1,1.854.893,3.266,3.266,0,0,1,.746,1.855,3.113,3.113,0,0,1-.435,1.915,2.349,2.349,0,0,1-1.683,1.074l-8.335,1.267ZM14.022,36.6,9.372,28.664a3.075,3.075,0,0,1-.422-2.021,2.889,2.889,0,0,1,.812-1.62,2.461,2.461,0,0,1,1.542-.735,2.392,2.392,0,0,1,1.768.638,2.906,2.906,0,0,1,.441.481,3,3,0,0,1,.325.566,3.119,3.119,0,0,1,.2.63,3.239,3.239,0,0,1,.064.674ZM22.15,12.073,21.1,21.333l-3.853-8.441a3.148,3.148,0,0,1-.284-1.462,3.044,3.044,0,0,1,.379-1.337,2.648,2.648,0,0,1,.912-.967,2.368,2.368,0,0,1,1.317-.353,2.409,2.409,0,0,1,1.07.285,2.766,2.766,0,0,1,.861.721,3.046,3.046,0,0,1,.54,1.043,3.17,3.17,0,0,1,.106,1.249ZM34.5,21.624a2.344,2.344,0,0,1,1.882-.277,2.8,2.8,0,0,1,1.471,1.072,3.26,3.26,0,0,1,.624,1.806,2.877,2.877,0,0,1-.657,1.922,2.662,2.662,0,0,1-.461.446,2.444,2.444,0,0,1-.535.307,2.372,2.372,0,0,1-.589.16,2.454,2.454,0,0,1-.624,0l-8.554-1.016ZM38.332,9.375l-7.3,4.8L34.5,5.652a2.881,2.881,0,0,1,.423-.724A2.6,2.6,0,0,1,35.5,4.4a2.506,2.506,0,0,1,3.084.239,3.083,3.083,0,0,1,.884,1.505,3.222,3.222,0,0,1-.035,1.772,2.7,2.7,0,0,1-1.1,1.459Z" transform="translate(0 13.487)" fill="#e3bcbc"/>
        </g>
      </g>
    </g>
    <g id="Scroll_Group_2" data-name="Scroll Group 2" transform="translate(465.65 1735.827)" clip-path="url(#clip-path-2)" style="isolation: isolate">
      <path id="Path_319" data-name="Path 319" d="M267.828,1896.558c3.764-7.477,16.222-10.063,15.894-24.719s-3.606-234.492-3.606-234.492v-25s-8.512,7.759-12.288,5.173S267.828,1896.558,267.828,1896.558Z" transform="translate(-265.65 -1611.213)" fill="rgba(64,5,11,0.9)" stroke="#707070" stroke-width="1"/>
    </g>
  </g>
</svg>
