<svg xmlns="http://www.w3.org/2000/svg" width="116.09" height="116.09" viewBox="0 0 116.09 116.09">
  <g id="flooring" opacity="0.6">
    <path id="Path_212" data-name="Path 212" d="M17,2H45.086V58.173H17Z" transform="translate(12.959 -0.128)" fill="#c49a6c"/>
    <path id="Path_213" data-name="Path 213" d="M2,2H30.086V58.173H2Z" transform="translate(-0.128 -0.128)" fill="#754c29"/>
    <path id="Path_214" data-name="Path 214" d="M32,17H88.173V45.086H32Z" transform="translate(26.045 12.959)" fill="#c49a6c"/>
    <path id="Path_215" data-name="Path 215" d="M32,2H88.173V30.086H32Z" transform="translate(26.045 -0.128)" fill="#754c29"/>
    <path id="Path_216" data-name="Path 216" d="M32,32H60.086V88.173H32Z" transform="translate(26.045 26.045)" fill="#c49a6c"/>
    <path id="Path_217" data-name="Path 217" d="M47,32H75.086V88.173H47Z" transform="translate(39.131 26.045)" fill="#754c29"/>
    <path id="Path_218" data-name="Path 218" d="M2,32H58.173V60.086H2Z" transform="translate(-0.128 26.045)" fill="#754c29"/>
    <path id="Path_219" data-name="Path 219" d="M2,47H58.173V75.086H2Z" transform="translate(-0.128 39.131)" fill="#c49a6c"/>
    <ellipse id="Ellipse_24" data-name="Ellipse 24" cy="3" ry="3" transform="translate(9.581 7.055)"/>
    <ellipse id="Ellipse_25" data-name="Ellipse 25" cy="3" ry="3" transform="translate(22.581 7.055)"/>
    <ellipse id="Ellipse_26" data-name="Ellipse 26" cx="3.5" cy="3" rx="3.5" ry="3" transform="translate(34.581 7.055)"/>
    <circle id="Ellipse_27" data-name="Ellipse 27" cx="3" cy="3" r="3" transform="translate(47.581 7.055)"/>
    <path id="Path_220" data-name="Path 220" d="M115.218,1H2.872A1.872,1.872,0,0,0,1,2.872V115.217a1.872,1.872,0,0,0,1.872,1.872H115.218a1.872,1.872,0,0,0,1.872-1.872V2.872A1.872,1.872,0,0,0,115.218,1Zm-54.3,56.173V32.831h52.428V57.173ZM57.173,85.259H4.745V60.917H57.173Zm56.173-56.173H60.917V4.745h52.428ZM57.173,4.745V57.173H32.831V4.745Zm-52.428,0H29.086V57.173H4.745ZM4.745,89H57.173v24.341H4.745Zm56.173,24.341V60.917H85.259v52.428Zm52.428,0H89V60.917h24.341Z" transform="translate(-1 -1)"/>
    <ellipse id="Ellipse_28" data-name="Ellipse 28" cx="3.5" cy="3" rx="3.5" ry="3" transform="translate(103.581 7.055)"/>
    <ellipse id="Ellipse_29" data-name="Ellipse 29" cx="3.5" cy="3" rx="3.5" ry="3" transform="translate(103.581 19.055)"/>
    <ellipse id="Ellipse_30" data-name="Ellipse 30" cx="3.5" rx="3.5" transform="translate(103.581 37.055)"/>
    <ellipse id="Ellipse_31" data-name="Ellipse 31" cx="3.5" rx="3.5" transform="translate(103.581 51.055)"/>
    <path id="Path_221" data-name="Path 221" d="M28.872,39.214a1.872,1.872,0,0,0,1.872-1.872V14.872a1.872,1.872,0,0,0-3.745,0V37.341A1.872,1.872,0,0,0,28.872,39.214Z" transform="translate(21.683 9.469)"/>
    <path id="Path_222" data-name="Path 222" d="M36.872,8.745H51.852a1.872,1.872,0,1,0,0-3.745H36.872a1.872,1.872,0,0,0,0,3.745Z" transform="translate(28.662 2.49)"/>
    <ellipse id="Ellipse_32" data-name="Ellipse 32" cx="3.5" rx="3.5" transform="translate(103.581 107.055)"/>
    <ellipse id="Ellipse_33" data-name="Ellipse 33" cx="3.5" rx="3.5" transform="translate(90.581 107.055)"/>
    <circle id="Ellipse_34" data-name="Ellipse 34" transform="translate(78.581 107.055)"/>
    <circle id="Ellipse_35" data-name="Ellipse 35" transform="translate(66.581 107.055)"/>
    <circle id="Ellipse_36" data-name="Ellipse 36" transform="translate(9.581 107.055)"/>
    <circle id="Ellipse_37" data-name="Ellipse 37" transform="translate(9.581 95.055)"/>
    <ellipse id="Ellipse_38" data-name="Ellipse 38" cy="2.5" ry="2.5" transform="translate(9.581 76.055)"/>
    <ellipse id="Ellipse_39" data-name="Ellipse 39" cy="3" ry="3" transform="translate(9.581 63.055)"/>
    <path id="Path_223" data-name="Path 223" d="M36.872,37A1.872,1.872,0,0,0,35,38.872V61.341a1.872,1.872,0,1,0,3.745,0V38.872A1.872,1.872,0,0,0,36.872,37Z" transform="translate(28.662 30.407)"/>
    <path id="Path_224" data-name="Path 224" d="M35.852,57H20.872a1.872,1.872,0,1,0,0,3.745H35.852a1.872,1.872,0,0,0,0-3.745Z" transform="translate(14.704 47.855)"/>
  </g>
</svg>
