<svg xmlns="http://www.w3.org/2000/svg" width="153.055" height="153" viewBox="0 0 153.055 153">
  <g id="forest" transform="translate(0 -0.055)" opacity="0.6">
    <g id="Group_8" data-name="Group 8">
      <circle id="Ellipse_1" data-name="Ellipse 1" cx="76.5" cy="76.5" r="76.5" transform="translate(0 0.055)" fill="#9af4ef"/>
    </g>
    <g id="Group_9" data-name="Group 9" transform="translate(62.949 14.822)" opacity="0.3">
      <path id="Path_137" data-name="Path 137" d="M269.407,49.583a79.327,79.327,0,0,0-31.083,136.9,76.514,76.514,0,0,0,31.083-136.9Z" transform="translate(-210.577 -49.583)" fill="#fffff4"/>
    </g>
    <g id="Group_10" data-name="Group 10" transform="translate(0.974 45.395)">
      <path id="Path_138" data-name="Path 138" d="M66.555,170.443c-3.362-2.782-8.221-.309-10.836-2.551-3.5-3-4.29-3.78-7.483-4.6-2.915-.747-5.554.943-8.361-2.8-2.018-2.69-3.921-2.418-6.356-1.82s-3.183-.064-6.461-2.776c-2.167-1.794-4.148-2.429-8.632-2.279a23.462,23.462,0,0,1-9.521-1.762A75.931,75.931,0,0,0,3.257,170.82c10.83,1.137,14.086.643,18.308,2,4.634,1.495,49.673,10.612,50.471,10.164s1.326-7.564,1.326-7.564C68.838,174.607,68.777,172.281,66.555,170.443Z" transform="translate(-3.257 -151.856)" fill="#36b294"/>
    </g>
    <g id="Group_11" data-name="Group 11" transform="translate(107.218 56.399)" opacity="0.4">
      <path id="Path_139" data-name="Path 139" d="M358.667,223.742a35.082,35.082,0,0,0,27.85,34.322A76.629,76.629,0,0,0,402.1,189.712a34.953,34.953,0,0,0-43.437,34.03Z" transform="translate(-358.667 -188.667)" fill="#fffff4"/>
    </g>
    <g id="Group_18" data-name="Group 18" transform="translate(116.785 42.243)">
      <g id="Group_13" data-name="Group 13" transform="translate(8.006 21.287)">
        <g id="Group_12" data-name="Group 12">
          <path id="Path_140" data-name="Path 140" d="M418.961,231.8a1.51,1.51,0,0,1-1.511-1.51V214.028a1.511,1.511,0,0,1,3.022,0v16.262A1.51,1.51,0,0,1,418.961,231.8Z" transform="translate(-417.45 -212.518)" fill="#145c1d"/>
        </g>
      </g>
      <g id="Group_15" data-name="Group 15">
        <g id="Group_14" data-name="Group 14">
          <path id="Path_141" data-name="Path 141" d="M409.7,162.721a9.516,9.516,0,0,1-19.032,0c0-5.256,4.26-21.411,9.516-21.411S409.7,157.466,409.7,162.721Z" transform="translate(-390.67 -141.31)" fill="#145c1d"/>
        </g>
      </g>
      <g id="Group_17" data-name="Group 17" transform="translate(5.798)">
        <g id="Group_16" data-name="Group 16">
          <path id="Path_142" data-name="Path 142" d="M413.784,141.31c-1.319,0-2.576,1.02-3.718,2.628h0c4.81,0,8.71,14.787,8.71,19.6a8.708,8.708,0,0,1-6.887,8.512,9.514,9.514,0,0,0,11.411-9.325C423.3,157.466,419.039,141.31,413.784,141.31Z" transform="translate(-410.066 -141.31)" fill="#145c1d"/>
        </g>
      </g>
    </g>
    <g id="Group_19" data-name="Group 19" transform="translate(49.816 34.158)" opacity="0.6">
      <path id="Path_143" data-name="Path 143" d="M166.646,122.445a5.663,5.663,0,0,1,7.1-5.539,8.155,8.155,0,0,1,14.161,5.539H166.646Z" transform="translate(-166.646 -114.267)" fill="#fff"/>
    </g>
    <g id="Group_20" data-name="Group 20" transform="translate(49.114 12.13)" opacity="0.6">
      <path id="Path_144" data-name="Path 144" d="M164.295,47.878a5.055,5.055,0,0,1,6.34-4.945,7.281,7.281,0,0,1,12.643,4.945Z" transform="translate(-164.295 -40.577)" fill="#fff"/>
    </g>
    <g id="Group_21" data-name="Group 21" transform="translate(104.329 19.431)" opacity="0.6">
      <path id="Path_145" data-name="Path 145" d="M364.246,70.863a4.06,4.06,0,0,0-5.092-3.972A5.847,5.847,0,0,0,349,70.863Z" transform="translate(-349 -64.999)" fill="#fff"/>
    </g>
    <g id="Group_22" data-name="Group 22" transform="translate(0 55.004)">
      <path id="Path_146" data-name="Path 146" d="M78.883,203.132c-2.012,0-2.347-1.989-2.545-2.391-2.2-4.484-4.868-2.391-9.241-2.391-3.419,0-4.118-4.982-6.027-4.783s-4.983,3.388-7.634,2.391c-3.8-1.43-3.923-3.587-7.634-4.783-3.275-1.055-6.043-.3-7.634-2.391-3.1-4.074-5.328.374-10.178-2.391-4.933-2.812-6.467,2.391-10.178,2.391-3.9,0-2.545-4.783-7.634-4.783C7.3,184,5.6,187.515,1.95,188.509A74.67,74.67,0,0,0,.541,214.436a13.679,13.679,0,0,0,3.7,2.586c4.55,1.954,100.083,3.632,100.083,3.632V212.7c-7,0-7-4.783-12.723-4.783C83.892,207.915,84.608,203.132,78.883,203.132Z" transform="translate(0 -184)" fill="#00a07d"/>
    </g>
    <g id="Group_23" data-name="Group 23" transform="translate(0 75.203)">
      <path id="Path_147" data-name="Path 147" d="M31.986,305.968l70.848-37.945-1.794-3.871c-17.154,0-46.923-17.438-101.04-11.26a76.2,76.2,0,0,0,18.515,49.879C25.757,304.5,31.986,305.968,31.986,305.968Z" transform="translate(0 -251.568)" fill="#94d75b"/>
    </g>
    <g id="Group_24" data-name="Group 24" transform="translate(12.961 75.216)">
      <path id="Path_148" data-name="Path 148" d="M131.436,264.185c-15.731,0-42.084-14.651-88.079-12.32,40.893.035,65.971,18.341,78.812,18.341l3.587-1.338,5.787-4.452Z" transform="translate(-43.357 -251.614)" fill="#b0eb81"/>
    </g>
    <g id="Group_25" data-name="Group 25" transform="translate(25.456 31.401)">
      <path id="Path_149" data-name="Path 149" d="M113.586,109.417a6.487,6.487,0,0,0-1.963.332,10.906,10.906,0,0,0-17.945,0,6.487,6.487,0,0,0-1.963-.332,6.561,6.561,0,0,0-6.561,6.561h34.992A6.561,6.561,0,0,0,113.586,109.417Z" transform="translate(-85.155 -105.043)" fill="#fff"/>
    </g>
    <g id="Group_26" data-name="Group 26" transform="translate(74.136 24.911)">
      <path id="Path_150" data-name="Path 150" d="M279.089,88.116a7.1,7.1,0,0,0-2.146.363,11.926,11.926,0,0,0-19.623,0,7.1,7.1,0,0,0-2.146-.363A7.174,7.174,0,0,0,248,95.29h38.264A7.174,7.174,0,0,0,279.089,88.116Z" transform="translate(-248 -83.333)" fill="#fff"/>
    </g>
    <g id="Group_27" data-name="Group 27" transform="translate(55.215 13.95)">
      <path id="Path_151" data-name="Path 151" d="M184.705,57.627a7.589,7.589,0,0,1,9.518-7.424A10.93,10.93,0,0,1,213.2,57.627Z" transform="translate(-184.705 -46.666)" fill="#fff"/>
    </g>
    <g id="Group_28" data-name="Group 28" transform="translate(6.776 74.146)">
      <path id="Path_152" data-name="Path 152" d="M22.667,281.888a76.525,76.525,0,0,0,146.279-31.473c0-.8-.036-1.589-.06-2.381C121.562,248.251,100.1,281.5,22.667,281.5Z" transform="translate(-22.667 -248.034)" fill="#71be63"/>
    </g>
    <g id="Group_35" data-name="Group 35" transform="translate(93.53 46.435)">
      <g id="Group_30" data-name="Group 30" transform="translate(9.084 24.156)">
        <g id="Group_29" data-name="Group 29">
          <path id="Path_153" data-name="Path 153" d="M344.981,258.018a1.714,1.714,0,0,1-1.715-1.713V237.851a1.715,1.715,0,0,1,3.429,0V256.3A1.714,1.714,0,0,1,344.981,258.018Z" transform="translate(-343.266 -236.138)" fill="#11512a"/>
        </g>
      </g>
      <g id="Group_32" data-name="Group 32">
        <g id="Group_31" data-name="Group 31">
          <path id="Path_154" data-name="Path 154" d="M334.474,179.63a10.8,10.8,0,1,1-21.6,0c0-5.964,4.835-24.3,10.8-24.3S334.474,173.666,334.474,179.63Z" transform="translate(-312.877 -155.333)" fill="#11512a"/>
        </g>
      </g>
      <g id="Group_34" data-name="Group 34" transform="translate(6.58)">
        <g id="Group_33" data-name="Group 33">
          <path id="Path_155" data-name="Path 155" d="M339.106,155.333c-1.5,0-2.923,1.157-4.219,2.982h0c5.459,0,9.883,16.779,9.883,22.238a9.882,9.882,0,0,1-7.815,9.659A10.8,10.8,0,0,0,349.9,179.63C349.9,173.666,345.07,155.333,339.106,155.333Z" transform="translate(-334.887 -155.333)" fill="#11512a"/>
        </g>
      </g>
    </g>
    <g id="Group_36" data-name="Group 36" transform="translate(23.956 81.538)">
      <path id="Path_156" data-name="Path 156" d="M209.054,272.76c-33.634.165-81.852,46.7-128.918,50.515A76.446,76.446,0,0,0,209.054,272.76Z" transform="translate(-80.136 -272.76)" fill="#43ab5f"/>
    </g>
    <g id="Group_37" data-name="Group 37" transform="translate(56.461 132.13)">
      <ellipse id="Ellipse_2" data-name="Ellipse 2" cx="1.993" cy="1.993" rx="1.993" ry="1.993" fill="#b0eb81"/>
    </g>
    <g id="Group_38" data-name="Group 38" transform="translate(65.766 108.693)">
      <ellipse id="Ellipse_3" data-name="Ellipse 3" cx="1.993" cy="1.993" rx="1.993" ry="1.993" fill="#94d75b"/>
    </g>
    <g id="Group_39" data-name="Group 39" transform="translate(119.694 82.519)">
      <ellipse id="Ellipse_4" data-name="Ellipse 4" cx="1.993" cy="1.993" rx="1.993" ry="1.993" fill="#94d75b"/>
    </g>
    <g id="Group_40" data-name="Group 40" transform="translate(86.422 135.318)">
      <ellipse id="Ellipse_5" data-name="Ellipse 5" cx="1.993" cy="1.993" rx="1.993" ry="1.993" fill="#71be63"/>
    </g>
    <g id="Group_41" data-name="Group 41" transform="translate(97.161 122.962)">
      <ellipse id="Ellipse_6" data-name="Ellipse 6" cx="1.993" cy="1.993" rx="1.993" ry="1.993" fill="#b0eb81"/>
    </g>
    <g id="Group_42" data-name="Group 42" transform="translate(74.535 125.797)">
      <ellipse id="Ellipse_7" data-name="Ellipse 7" cx="1.993" cy="1.993" rx="1.993" ry="1.993" fill="#71be63"/>
    </g>
    <g id="Group_43" data-name="Group 43" transform="translate(41.054 134.122)">
      <ellipse id="Ellipse_8" data-name="Ellipse 8" cx="1.993" cy="1.993" rx="1.993" ry="1.993" fill="#71be63"/>
    </g>
    <g id="Group_44" data-name="Group 44" transform="translate(43.047 117.296)">
      <ellipse id="Ellipse_9" data-name="Ellipse 9" cx="1.993" cy="1.993" rx="1.993" ry="1.993" fill="#b0eb81"/>
    </g>
    <g id="Group_45" data-name="Group 45" transform="translate(76.528 101.239)">
      <ellipse id="Ellipse_10" data-name="Ellipse 10" cx="1.993" cy="1.993" rx="1.993" ry="1.993" fill="#b0eb81"/>
    </g>
    <g id="Group_46" data-name="Group 46" transform="translate(26.699 116.3)">
      <ellipse id="Ellipse_11" data-name="Ellipse 11" cx="1.993" cy="1.993" rx="1.993" ry="1.993" fill="#94d75b"/>
    </g>
    <g id="Group_47" data-name="Group 47" transform="translate(111.141 114.307)">
      <ellipse id="Ellipse_12" data-name="Ellipse 12" cx="1.993" cy="1.993" rx="1.993" ry="1.993" fill="#b0eb81"/>
    </g>
    <g id="Group_48" data-name="Group 48" transform="translate(130.436 108.693)">
      <ellipse id="Ellipse_13" data-name="Ellipse 13" cx="1.993" cy="1.993" rx="1.993" ry="1.993" fill="#b0eb81"/>
    </g>
    <g id="Group_49" data-name="Group 49" transform="translate(93.53 112.314)">
      <ellipse id="Ellipse_14" data-name="Ellipse 14" cx="1.993" cy="1.993" rx="1.993" ry="1.993" fill="#71be63"/>
    </g>
    <g id="Group_50" data-name="Group 50" transform="translate(111.141 127.61)">
      <ellipse id="Ellipse_15" data-name="Ellipse 15" cx="1.993" cy="1.993" rx="1.993" ry="1.993" fill="#71be63"/>
    </g>
    <g id="Group_51" data-name="Group 51" transform="translate(117.183 103.232)">
      <ellipse id="Ellipse_16" data-name="Ellipse 16" cx="1.993" cy="1.993" rx="1.993" ry="1.993" fill="#71be63"/>
    </g>
    <g id="Group_52" data-name="Group 52" transform="translate(130.436 91.658)">
      <ellipse id="Ellipse_17" data-name="Ellipse 17" cx="1.993" cy="1.993" rx="1.993" ry="1.993" fill="#71be63"/>
    </g>
  </g>
</svg>
