<svg xmlns="http://www.w3.org/2000/svg" width="435.317" height="691.336" viewBox="0 0 435.317 691.336">
  <g id="handyman_icon" data-name="handyman icon" transform="translate(-177.246 -3.697)">
    <g id="Group_5" data-name="Group 5" transform="translate(163.056 -47.72)">
      <path id="Path_4" data-name="Path 4" d="M573.417,1294.7c0,13.09-97.046,23.7-216.759,23.7S139.9,1307.793,139.9,1294.7s97.046-23.7,216.759-23.7S573.417,1281.612,573.417,1294.7Z" transform="translate(-125.709 -575.653)" fill="#161616" opacity="0.17"/>
      <g id="Group_4" data-name="Group 4" transform="translate(31.968 51.416)">
        <g id="Group_1" data-name="Group 1" transform="translate(14.751 414.591)">
          <path id="Path_5" data-name="Path 5" d="M344.44,888.263,235.1,937.039V875.074l49.8-13.406,53.073-14.224,6.311-1.689.076-.055v1.145Z" transform="translate(-162.638 -845.7)" fill="#a5301a"/>
          <path id="Path_6" data-name="Path 6" d="M139.876,919.056l-.076,42.563h72.462V899.6Z" transform="translate(-139.8 -870.226)" fill="#ee2a24"/>
          <path id="Path_7" data-name="Path 7" d="M139.876,919.056l-.076.981,72.462-.163V899.6Z" transform="translate(-139.8 -870.226)" fill="#fbdbe9"/>
        </g>
        <path id="Path_8" data-name="Path 8" d="M248.075,845.6,139.8,894.43h72.462L321.6,845.6Z" transform="translate(-125.049 -430.982)" fill="#d33f27"/>
        <g id="Group_2" data-name="Group 2" transform="translate(36.954 393.329)">
          <path id="Path_9" data-name="Path 9" d="M308.83,806.5H277.579L169,855.221l2.889,3.869,20.454,7.575,7.528-11.445Z" transform="translate(-169 -806.5)" fill="#ef4123"/>
          <path id="Path_10" data-name="Path 10" d="M207.228,855.221,199.7,866.666l19.845,7.357,7.071-7.957L335.8,817.345,316.187,806.5Z" transform="translate(-176.357 -806.5)" fill="#b9392a"/>
          <path id="Path_11" data-name="Path 11" d="M342.059,826.4v10.572L232.871,885.694l-2.737-.981-4.334-1.635,7.071-7.957,49.8-22.235Z" transform="translate(-182.612 -815.555)" fill="#a5301a"/>
        </g>
        <path id="Path_12" data-name="Path 12" d="M225.933,843.829A2.3,2.3,0,0,1,223.5,841.7V831.4a2.14,2.14,0,0,1,1.369-1.907l48.891-21.69a2.567,2.567,0,0,1,2.357.109,2,2,0,0,1,1.141,1.8v9.973a2.455,2.455,0,0,1-4.866,0V813.2l-44.025,19.51V841.7A2.263,2.263,0,0,1,225.933,843.829Z" transform="translate(-145.107 -413.603)" fill="#231f20"/>
        <path id="Path_13" data-name="Path 13" d="M139.8,917.318h72.462V906.745L192.873,895.9H162l-22.05,11.336Z" transform="translate(-125.049 -453.893)" fill="#ee2a24"/>
        <path id="Path_14" data-name="Path 14" d="M139.8,917.318l.76-9.755,21.518-10.9,30.338-.218,19.845,10.3L192.873,895.9H162l-22.05,11.336Z" transform="translate(-125.049 -453.893)" fill="#fbdbe9"/>
        <path id="Path_15" data-name="Path 15" d="M321.526,844.79v1.144L212.49,894.6H139.8v-2.016h72.158l.3-.109,102.877-45.942,6.311-2.834v1.144Z" transform="translate(-125.049 -430.119)" fill="#600000"/>
        <path id="Path_16" data-name="Path 16" d="M211.4,854.968,317.926,807.5S237.176,845.758,211.4,854.968Z" transform="translate(-142.207 -413.588)" fill="#fbdbe9"/>
        <path id="Path_17" data-name="Path 17" d="M373.6,166.8h13.686s2.281-5.777,1.445-6.213c-.912-.381-4.486-2.125-4.638-2.289s-4.714,2.779-4.714,2.779Z" transform="translate(-181.077 -117.133)" fill="#1e1c1a"/>
        <path id="Path_18" data-name="Path 18" d="M490.707,263.6a77.676,77.676,0,0,1-7.223,5.177,113.762,113.762,0,0,1-24.94,11.881,104.834,104.834,0,0,1-33.152,5.5,94.655,94.655,0,0,1-38.474-7.9,83.311,83.311,0,0,1-15.055-8.5,58.461,58.461,0,0,1-6.463-5.232c4.41-3.052,19.085-9.047,26.537-14.333a27.661,27.661,0,0,0,2.737-2.234,5.555,5.555,0,0,0,1.673-2.616,27.764,27.764,0,0,0,.3-4.9c0-1.144-.076-2.4-.076-3.706,0-.49-.076-.926-.076-1.417-.456-8.12-1.521-17.6-1.521-17.6l31.859-6.867,25.244-5.45,6.235,10.082.988,8.556,1.293,10.9.3,2.888.152,1.689.836,7.3L462.5,252l.076.382a194.9,194.9,0,0,0,25.852,10.409A19.1,19.1,0,0,0,490.707,263.6Z" transform="translate(-179.112 -138.57)" fill="#7b4531"/>
        <path id="Path_19" data-name="Path 19" d="M488.45,262.986A194.9,194.9,0,0,1,462.6,252.577l-.076-.382-.608-5.177-.836-7.3-.152-1.689-.3-2.888-.912-7.793h0l-1.369-11.663L452.105,205.6l-33.228,7.139L395,217.862s.076.545.152,1.417c.228,2.125.684,6.267,1.065,10.791.152,1.8.3,3.6.38,5.4,0,.49.076.981.076,1.417.076,1.308.076,2.561.076,3.706a27.754,27.754,0,0,1-.3,4.9,5.555,5.555,0,0,1-1.673,2.616,27.68,27.68,0,0,1-2.737,2.234c-7.452,5.286-22.126,11.227-26.537,14.333a51.583,51.583,0,0,0,6.463,5.232,295.368,295.368,0,0,1,41.364,1.58l-20.454-8.665c-1.217-.49-1.293-1.744-.152-2.289l31.707-15.7a.686.686,0,0,1,.3-.109L450.965,231.7h0s6.387,27.521,5.018,29.865-21.062,9.973-21.062,9.973,17.26-1.744,48.663-2.561a66.179,66.179,0,0,0,7.223-5.177C489.971,263.477,489.211,263.2,488.45,262.986Z" transform="translate(-179.136 -138.661)" fill="#683d2d" opacity="0.76"/>
        <path id="Path_20" data-name="Path 20" d="M391.31,190.647l-3.5-.926c-1.369-.382-2.889.436-2.813,1.471l1.293,13.134c.152,1.689,1.6,3.106,3.726,3.815l6.083,2.016C396.024,210.212,397.165,197.023,391.31,190.647Z" transform="translate(-183.808 -131.392)" fill="#683d2d"/>
        <path id="Path_21" data-name="Path 21" d="M397.512,210.2l-5.551-1.58c-.228-.055-.456-.163-.684-.218a3.813,3.813,0,0,1-2.737-2.779l-1.14-10.246c-.076-.818,1.293-1.471,2.585-1.144l3.27.708a11.03,11.03,0,0,1,2.585,3.706C398.2,203.82,397.512,210.2,397.512,210.2Z" transform="translate(-184.383 -133.448)" fill="#b27566"/>
        <path id="Path_22" data-name="Path 22" d="M401.688,211.309l-5.627-1.253-.684-.163c-1.6-.49-2.585-1.308-2.737-2.234l-1.14-8.175c-.076-.654,1.293-1.144,2.585-.926l3.27.6a8.925,8.925,0,0,1,2.585,2.943C402.372,206.186,401.688,211.309,401.688,211.309Z" transform="translate(-185.365 -135.432)" fill="#93564a"/>
        <path id="Path_23" data-name="Path 23" d="M475.312,151.847c-1.445,2.18-4.182,6.485-6.007,9.755-2.585,4.632-8.9,4.142-8.9,4.142-1.369.872-11.1,11.336-16.728,17.385a11.376,11.376,0,0,1-2.357,1.907,16.836,16.836,0,0,1-8.9,2.4H415.32a16.237,16.237,0,0,1-9.581-2.888h0a7.833,7.833,0,0,1-1.369-1.2c-2.965-3-6.767-6.758-9.124-9.1a7.2,7.2,0,0,1-2.281-4.85,102.818,102.818,0,0,0-2.813-22.78h0c-2.737-11.5-3.954-20-5.931-23.816-.076-.109.076-.327,0-.436-.532-1.308-3.041-2.67-1.825-3.76l7-6.049.684-6.213a5.061,5.061,0,0,1,2.965-3.76c3.5-1.8,9.5-4.741,12.926-5.613,5.018-1.253,32.391-5.886,45.926-.872,8.288,3.052,14.9,9.537,18.857,14.169,1.141,1.362,2.129,2.561,2.813,3.488a3.753,3.753,0,0,1,.76,3.161c-1.217,6.54-2.737,28.066-2.737,28.066l1.293,1.58,2.053,2.507A2.014,2.014,0,0,1,475.312,151.847Z" transform="translate(-183.106 -87.796)" fill="#683d2d"/>
        <path id="Path_24" data-name="Path 24" d="M439.638,206.29l-5.931-.49-5.931.49s-3.726-.817-2.281,1.526,4.79,5.232,8.44,5.232,7-2.888,8.44-5.232C443.82,205.419,439.638,206.29,439.638,206.29Z" transform="translate(-193.433 -138.752)" fill="#edb2a2"/>
        <path id="Path_25" data-name="Path 25" d="M451.693,164.6s-7.3.49-9.276,3.651c-1.977,3.215,7.68-1.635,11.938-1.417C458.689,167.161,451.693,164.6,451.693,164.6Z" transform="translate(-197.505 -120.005)" fill="#d69383" opacity="0.44"/>
        <path id="Path_26" data-name="Path 26" d="M491.008,161.009l-2.053-2.507-1.293-1.58s1.521-21.527,2.737-28.066a4.03,4.03,0,0,0-.76-3.161c-.684-.872-1.6-2.125-2.813-3.488-1.369-.872-2.433-1.526-2.737-1.689-1.445-.763-14.143,0-14.143,0l-8.744,4.578-2.433,5.123s10.493,2.016,11.71,6.7V140.9c0,1.308-1.369,2.343-3.194,2.452l-9.276.49-2.965,2.888,5.4.218a5.828,5.828,0,0,1,4.41,2.016l1.369,1.907-12.622.381v.545l-5.4,1.907s8.516,5.45,16.576.763a11.911,11.911,0,0,1,2.129-.817c1.369-.055,2.585-.763,4.182-.872,1.825-.163,3.422.981,3.194,2.289l-.989,6.812a4.131,4.131,0,0,1-3.345,3l-2.889.708c-1.749.436-2.813,1.58-2.813,2.888.3,5.995.3,22.726-7.147,28.611a11.371,11.371,0,0,0,2.357-1.907c5.627-6.049,15.359-16.513,16.728-17.385,0,0,6.311.49,8.9-4.142,1.825-3.27,4.562-7.575,6.007-9.755A2.289,2.289,0,0,0,491.008,161.009Z" transform="translate(-198.954 -99.792)" fill="#683d2d"/>
        <path id="Path_27" data-name="Path 27" d="M455.147,180.4s-7.832-.545-11.177-3.433c-3.269-2.888,5.475-3.869,5.475-3.869Z" transform="translate(-197.765 -123.873)" fill="#683d2d"/>
        <path id="Path_28" data-name="Path 28" d="M474.464,116.914c0,.109-.076.218-.076.327h0c-.152.817-.3,1.8-.456,2.888-.228,1.526-.38,3.27-.608,5.123-.912,8.665-1.673,19.728-1.673,19.728l1.293,1.58-5.627,1.308-3.194-4.033-4.866-8.393a9.877,9.877,0,0,1-1.369-4.959c0-.6,0-1.417-.076-2.343q-2.509.409-4.79.654h0c-34.064,3.924-51.7-10.464-51.7-10.464a4.236,4.236,0,0,0-1.445,2.725l-.456,4.9a7.806,7.806,0,0,1-2.053,4.469l-4.03,4.523a10.734,10.734,0,0,0-2.737,5.995l-.532,5.613c-2.737-11.5-4.942-20.055-7-23.925-.76-1.417-2.129-2.943-.836-4.087l7-6.049.152-1.2.076-.49.532-4.469a5.062,5.062,0,0,1,2.965-3.76c3.5-1.8,9.5-4.741,12.926-5.613,5.018-1.253,32.391-5.886,45.926-.872,7.756,2.888,14.219,8.829,18.172,13.352,1.521,1.689,2.661,3.215,3.5,4.305A3.677,3.677,0,0,1,474.464,116.914Z" transform="translate(-183.018 -87.796)" fill="#33302b"/>
        <path id="Path_29" data-name="Path 29" d="M498.452,130.012c0,.109-.076.218-.076.327h0c-.152.817-.3,1.8-.456,2.888-.228,1.526-.38,3.27-.608,5.123-.913,8.665-1.673,19.728-1.673,19.728l1.293,1.58-5.627,1.308-3.194-4.033-4.866-8.393a9.878,9.878,0,0,1-1.369-4.959c0-.6,0-1.417-.076-2.343,0,0,21.822-2.834,12.394-18.529,0-.055-.076-.109-.076-.109,1.521,1.689,2.661,3.215,3.5,4.305A3.907,3.907,0,0,1,498.452,130.012Z" transform="translate(-207.006 -100.894)" fill="#1e1c1a"/>
        <path id="Path_30" data-name="Path 30" d="M410.745,164.192l-.228-.327-8.972.109.076-1.635c.076-1.2,1.217-2.234,2.889-2.452l4.942-.708.076-1.362-.912-.981-6.843-1.2c-1.825-.327-3.041-1.58-2.737-2.943l.3-1.417-5.323-4.033-4.714-1.58-5.7-.763,1.369.272c.076.109.076.218.152.273,1.977,3.815,2.737,12.916,5.475,24.47h0a102.822,102.822,0,0,1,2.813,22.78,6.879,6.879,0,0,0,2.281,4.85c2.357,2.343,6.159,6.1,9.124,9.1.456.436.912.817,1.369,1.2-6.767-6.431-5.7-22.944-5.17-28.448.076-1.09-.836-2.071-2.281-2.343l-.456-.109a3.745,3.745,0,0,1-2.965-2.343l-1.6-6.485c-.228-1.035.912-1.962,2.357-1.962,1.825.055,3.5.055,4.942.055-.38-.218-.836-.436-1.293-.708A93.522,93.522,0,0,1,410.745,164.192Z" transform="translate(-183.473 -111.041)" fill="#683d2d"/>
        <path id="Path_31" data-name="Path 31" d="M416.381,180.248a97.306,97.306,0,0,0-11.481,1.308c.456.273.912.49,1.369.709,10.265,4.959,12.926-1.853,12.926-1.853C418.51,180.03,418.054,180.248,416.381,180.248Z" transform="translate(-188.578 -127.097)" fill="#683d2d"/>
        <path id="Path_32" data-name="Path 32" d="M407.08,183.086a35.811,35.811,0,0,0-5.779-.926c-1.9,0-1.9-1.144-1.9-1.144s3.878-.926,4.106-.926a20.164,20.164,0,0,1,2.585.055c.076.109,2.2.436,2.281.654A13.29,13.29,0,0,1,407.08,183.086Z" transform="translate(-187.26 -127.047)" fill="#683d2d"/>
        <path id="Path_33" data-name="Path 33" d="M445.6,166.781a15.655,15.655,0,0,1,5.551-2.343,34.924,34.924,0,0,1,6.311-.872,35.813,35.813,0,0,1,6.387.273,31.1,31.1,0,0,1,3.117.545,25.415,25.415,0,0,1,2.965.926c-1.065.218-2.129.327-3.118.436-1.065.109-2.053.218-3.042.273-2.053.163-4.03.218-6.007.327Z" transform="translate(-198.331 -119.515)" fill="#33302b"/>
        <path id="Path_34" data-name="Path 34" d="M417.239,167.1c1.749.436,6.767.817,6.539,2.616s-2.205-.055-6.919-.436C412.068,168.844,417.239,167.1,417.239,167.1Z" transform="translate(-190.956 -121.143)" fill="#d69383" opacity="0.44"/>
        <path id="Path_35" data-name="Path 35" d="M417.75,168.6a20.168,20.168,0,0,0-2.585.055c-.836.055-1.673.055-2.509.109-1.673.055-3.27.055-4.942,0s-3.346-.163-5.018-.381a25.393,25.393,0,0,1-5.095-1.09,20.541,20.541,0,0,1,5.095-1.09,32.84,32.84,0,0,1,5.17-.218,33.414,33.414,0,0,1,5.17.6,21.613,21.613,0,0,1,2.509.708,11.913,11.913,0,0,1,1.217.545C417.141,168.054,417.6,168.272,417.75,168.6Z" transform="translate(-186.828 -120.626)" fill="#33302b"/>
        <path id="Path_36" data-name="Path 36" d="M449.728,210.6a13.363,13.363,0,0,1,3.574,1.09,17.687,17.687,0,0,1,2.965,1.635,13.555,13.555,0,0,1,2.281,2.071,4.8,4.8,0,0,1,1.217,2.507l-.152.055a26.523,26.523,0,0,0-4.638-3.869,46.2,46.2,0,0,0-5.475-3.379Z" transform="translate(-199.265 -140.936)" fill="#683d2d"/>
        <path id="Path_37" data-name="Path 37" d="M421.341,210.7a38.539,38.539,0,0,1-5.018,3.978c-1.749,1.2-3.5,2.343-5.323,3.651a5.654,5.654,0,0,1,1.369-2.616,12.784,12.784,0,0,1,2.433-2.125,15.946,15.946,0,0,1,3.041-1.689A16.3,16.3,0,0,1,421.341,210.7Z" transform="translate(-190.039 -140.982)" fill="#683d2d"/>
        <path id="Path_38" data-name="Path 38" d="M428.1,227.4c1.293.054,2.433.163,3.5.218a30.977,30.977,0,0,0,3.117.164,28.676,28.676,0,0,0,3.041-.054c1.065-.055,2.129-.164,3.422-.327a5.375,5.375,0,0,1-2.737,1.907,9.81,9.81,0,0,1-3.8.6,13.773,13.773,0,0,1-3.726-.708A7.156,7.156,0,0,1,428.1,227.4Z" transform="translate(-194.137 -148.581)" fill="#d69383"/>
        <path id="Path_39" data-name="Path 39" d="M436.748,256.554h-1.825a17.788,17.788,0,0,1-.3-1.853,20.617,20.617,0,0,1-.228-3.052,40.253,40.253,0,0,1,.228-6.049,53.826,53.826,0,0,0,.76,5.995,20.575,20.575,0,0,0,.684,2.943A10.511,10.511,0,0,0,436.748,256.554Z" transform="translate(-195.638 -156.862)" fill="#e2a491"/>
        <path id="Path_40" data-name="Path 40" d="M416.876,218.5a24.383,24.383,0,0,0,3.878.763,30.952,30.952,0,0,0,3.954.381c1.292.055,2.661.164,3.954.164l1.977.054h1.977c2.661,0,5.323-.054,7.908-.218,1.293-.109,2.661-.218,3.954-.381a24.386,24.386,0,0,0,3.878-.763l.076.109a14.666,14.666,0,0,1-3.726,1.362,33.7,33.7,0,0,1-3.954.763,61,61,0,0,1-16.272,0,30.924,30.924,0,0,1-3.954-.763,17.08,17.08,0,0,1-3.726-1.362Z" transform="translate(-191.429 -144.531)" fill="#353334"/>
        <path id="Path_41" data-name="Path 41" d="M500,192.774c-1.445,2.18-4.182,6.485-6.007,9.755-2.585,4.632-8.9,4.142-8.9,4.142.608-1.962.989-13.406,1.141-17.93a4.387,4.387,0,0,1,1.673-3.27l.913-.763c4.79-2.67,7.6,1.144,7.6,1.144l3.345,4.033A2.309,2.309,0,0,1,500,192.774Z" transform="translate(-207.797 -128.723)" fill="#683d2d"/>
        <path id="Path_42" data-name="Path 42" d="M452,170.426a13.609,13.609,0,0,1,3.041-1.09,16.825,16.825,0,0,1,3.27-.436h1.673c.532.054,1.141.054,1.673.163a10.283,10.283,0,0,1,3.194.817v.054a31.713,31.713,0,0,0-3.194-.327,31.213,31.213,0,0,0-3.193,0,34.915,34.915,0,0,0-6.311.872Z" transform="translate(-199.865 -121.962)" fill="#683d2d"/>
        <path id="Path_43" data-name="Path 43" d="M418.886,172.487a18.63,18.63,0,0,0-2.889-.382c-.988-.054-1.977-.109-2.889-.163-.988-.054-1.977,0-2.965,0l-1.521.055c-.532,0-.988.054-1.521.054a16.568,16.568,0,0,1,2.889-.6,18.966,18.966,0,0,1,3.041-.163,14.428,14.428,0,0,1,3.041.327A8.3,8.3,0,0,1,418.886,172.487Z" transform="translate(-189.105 -123.042)" fill="#683d2d"/>
        <path id="Path_44" data-name="Path 44" d="M401.867,132.93a4.236,4.236,0,0,0-1.445,2.725l-.456,4.9a7.806,7.806,0,0,1-2.053,4.469l-4.03,4.523c-.076.109-.228.272-.3.382a10.585,10.585,0,0,0-2.433,5.613l-.532,5.613c-.532-2.343-1.141-4.578-1.825-6.649-.912-3.052-1.9-5.831-2.889-8.229h0c-1.6-4.033-.532-6.54-1.521-8.447a3.229,3.229,0,0,1,.988-4.142l4.486-6.594.152-1.2c.3.763,1.977,2.4,9.885,5.5A4.321,4.321,0,0,1,401.867,132.93Z" transform="translate(-183.567 -102.396)" fill="#1e1c1a"/>
        <path id="Path_45" data-name="Path 45" d="M490.821,206.121a3.745,3.745,0,0,0-.913-3.651,4.763,4.763,0,0,0-1.292-.926s-.837-7.521.456-11.172h0c.38-1.09.989-1.8,1.9-1.907,3.8-.381,7.376,1.8,7.908,4.85C499.413,196.312,494.623,203.287,490.821,206.121Z" transform="translate(-208.575 -130.844)" fill="#683d2d"/>
        <path id="Path_46" data-name="Path 46" d="M494.319,198.167a12.988,12.988,0,0,1-4.41,5.831,4.767,4.767,0,0,0-1.293-.926s-.837-7.521.456-11.172h0S496.3,192.39,494.319,198.167Z" transform="translate(-208.576 -132.427)" fill="#a05a50"/>
        <path id="Path_47" data-name="Path 47" d="M448.726,177.541a4.062,4.062,0,0,0,1.673.49c3.422.218,14.675.708,15.815-1.58,0,0-.989-1.035-1.977-2.016a4.491,4.491,0,0,0-1.673-1.144,6.663,6.663,0,0,0-2.585-.49l-9.5.109a9.489,9.489,0,0,0-2.205,1.417A1.866,1.866,0,0,0,448.726,177.541Z" transform="translate(-198.796 -123.736)" fill="#fff"/>
        <path id="Path_48" data-name="Path 48" d="M453.4,174.1c.076,2.125,2.509,3.815,5.4,3.76s5.323-1.8,5.246-3.869c0-.218-.076-.436-.076-.6a6.663,6.663,0,0,0-2.585-.49l-7.832.109A4.886,4.886,0,0,0,453.4,174.1Z" transform="translate(-200.2 -123.782)" fill="#23201d"/>
        <path id="Path_49" data-name="Path 49" d="M465.917,176.042a7.282,7.282,0,0,0-2.509-3.052,7.064,7.064,0,0,0-2.281-.926,11.72,11.72,0,0,0-1.369-.164h-1.217c-3.194,0-6.387.109-9.657.327h-.076a11.676,11.676,0,0,0-1.521.763,2.213,2.213,0,0,0-.988,1.09,5.553,5.553,0,0,1,2.813-1.308h-.152c3.194.163,6.463.163,9.657.109l1.217-.055a6.967,6.967,0,0,1,1.065.055,6.3,6.3,0,0,1,1.977.654A14.641,14.641,0,0,1,465.917,176.042Z" transform="translate(-198.499 -123.327)" fill="#3a2725"/>
        <path id="Path_50" data-name="Path 50" d="M2.889,1.043c0,.572-.639,1.032-1.437,1.028S0,1.6,0,1.028.64,0,1.437,0,2.885.471,2.889,1.043Z" transform="translate(259.325 50.011) rotate(-1.01)" fill="#fff"/>
        <path id="Path_51" data-name="Path 51" d="M402.871,178.842a3.662,3.662,0,0,0,1.521.436c3.041.164,13,.6,13.991-1.362,0,0-.913-.926-1.749-1.8a3.612,3.612,0,0,0-1.521-.981,6.118,6.118,0,0,0-2.281-.436l-8.44.109a9.5,9.5,0,0,0-1.977,1.253A1.64,1.64,0,0,0,402.871,178.842Z" transform="translate(-187.842 -124.601)" fill="#fff"/>
        <path id="Path_52" data-name="Path 52" d="M407.091,175.69c.076,1.853,2.2,3.379,4.79,3.324s4.714-1.58,4.638-3.433a1.354,1.354,0,0,0-.076-.545,6.12,6.12,0,0,0-2.281-.436l-6.919.109A1.5,1.5,0,0,0,407.091,175.69Z" transform="translate(-189.095 -124.555)" fill="#23201d"/>
        <path id="Path_53" data-name="Path 53" d="M418.136,177.6a5.566,5.566,0,0,0-2.281-2.67,5.2,5.2,0,0,0-2.053-.817,4.325,4.325,0,0,0-1.217-.109h-1.065c-2.813,0-5.7.109-8.516.272h-.076a5.966,5.966,0,0,0-1.293.654,1.882,1.882,0,0,0-.836.981,4.694,4.694,0,0,1,2.433-1.144h-.152c2.813.109,5.7.163,8.516.055h1.065a5.132,5.132,0,0,1,.912.054,6.291,6.291,0,0,1,1.749.545A8.68,8.68,0,0,1,418.136,177.6Z" transform="translate(-187.595 -124.282)" fill="#3a2725"/>
        <path id="Path_54" data-name="Path 54" d="M2.585.933c0,.512-.572.924-1.286.92S0,1.432,0,.92.572,0,1.286,0,2.581.421,2.585.933Z" transform="translate(223.363 50.881) rotate(-1.011)" fill="#fff"/>
        <path id="Path_55" data-name="Path 55" d="M464.739,178.7a18.546,18.546,0,0,1-4.486,9.7,24.462,24.462,0,0,1-4.41,4.033c-1.293.708-2.661,1.417-4.182,2.234-4.562,2.4-5.627,8.12-5.627,8.12s-9.733-8.066-13.306-7.848-4.182,1.8-6.463,1.853-2.889-1.526-6.311-1.526c-3.422-.054-12.394,8.066-12.394,8.066s-.988-5.4-5.018-7.466c-4.03-2.016-7.452-3.815-7.908-4.9a12.658,12.658,0,0,0-.913-1.853,64.3,64.3,0,0,0,.3,14.115c.456,3.324.532,5.341.913,7.194.608,2.561,1.825,4.9,5.475,9.864a27.075,27.075,0,0,0,1.9,2.234c3.118,3.433,9.048,5.559,12.09,7.139,4.106,2.125,8.592,2.616,12.546,2.725,4.03.164,8.668,0,13-1.962,3.27-1.471,9.885-3.324,13.458-6.812,3.65-3.542,7.68-8.992,9.276-13.516,1.6-4.578,2.433-12.262,2.661-13.407a85.8,85.8,0,0,0,1.6-14.278Zm-38.474,22.835c11.557-.163,15.055,5.722,15.055,5.722-2.661,2.888-8.82,4.36-9.124,2.452s-3.346-2.779-5.931-2.779-5.551.926-5.855,2.834-6.083.49-8.592-2.289C411.818,207.529,415.088,201.753,426.265,201.535Z" transform="translate(-185.839 -126.421)" fill="#33302b"/>
        <path id="Path_56" data-name="Path 56" d="M435.091,244.174h0c-3.041-.654-5.627-1.58-7.6-1.58-4.79,0-9.961,3.815-17.26,3.815-5.855,0-12.546-4.687-14.827-10.246.608,2.561,1.825,4.9,5.475,9.864a27.058,27.058,0,0,0,1.9,2.234c3.117,3.433,9.048,5.559,12.09,7.139,4.106,2.125,8.592,2.616,12.546,2.725,4.03.163,8.668,0,13-1.962,3.27-1.471,9.885-3.324,13.458-6.812,3.65-3.542,7.68-8.992,9.276-13.516.076-.163.076-.272.152-.436C454.708,251.041,435.091,244.174,435.091,244.174Z" transform="translate(-186.301 -152.221)" fill="#1e1c1a"/>
        <path id="Path_57" data-name="Path 57" d="M446.518,206.834s.836-2.234-1.064-2.234l-3.954.872,1.369.763Z" transform="translate(-197.348 -138.206)" fill="#edb2a2"/>
        <path id="Path_58" data-name="Path 58" d="M425.118,206.081s-.913-1.144.684-2.343,3.346,1.417,3.346,1.417Z" transform="translate(-193.36 -137.671)" fill="#edb2a2"/>
        <path id="Path_59" data-name="Path 59" d="M427.632,175.8s5.4,3.161,3.878,8.175a41.254,41.254,0,0,1-2.357,5.995c-.38.817.456,1.689,1.673,1.635l11.025-.109-6.691,2.943a2.551,2.551,0,0,1-1.9.055l-6.083-1.962c-.912-.273-1.293-1.09-.836-1.689,2.129-3,7.223-11.118,1.369-14.714" transform="translate(-193.669 -125.102)" fill="#9b5b4e"/>
        <path id="Path_60" data-name="Path 60" d="M469.75,150.7s-25.32,2.18-38.55-7.3Z" transform="translate(-194.88 -110.359)" fill="#683d2d"/>
        <path id="Path_61" data-name="Path 61" d="M266.935,779.775c-.456,4.251-2.2,5.831-2.2,5.831l.228,4.523c.152,3.27-3.422,5.995-7.984,6.1a46.453,46.453,0,0,1-7.756-.382c-3.8-.708-12.85-18.311-16.044-24.742a6.446,6.446,0,0,1-.456-4.741c1.6-5.4,5.323-18.747,6.387-26.6a21.16,21.16,0,0,0,.228-4.142c0-.382-.076-.818-.076-1.308,12.7-.327,30.034-4.523,30.034-4.523-.076,1.362-.152,2.725-.228,3.978-1.216,24.306,1.521,31.609,1.521,31.609C268.38,766.859,267.392,775.524,266.935,779.775Z" transform="translate(-147.255 -378.15)" fill="#683d2d"/>
        <path id="Path_62" data-name="Path 62" d="M316.821,449.062c0,.491-.076.981-.076,1.471-.532.872-1.217,1.8-1.825,2.725-1.673,2.452-3.65,5.068-5.246,7.248-2.205,2.888-3.878,4.959-3.878,4.959s.988,11.281,1.293,12.861-5.779,0-5.779,0a10.386,10.386,0,0,1-.076,4.578v.054c-.076.164-.076.327-.152.49s-.076.327-.152.545c-.228.763-.532,1.635-.836,2.452h0C294.618,499.854,275,518,273.556,519.582c0,0-22.127,4.251-34.6,1.853-.38-5.5-.608-10.3-.3-12.262.76-5.123,7.6-20.273,13.763-32.917,6.159-12.589,7.6-36.4,11.025-45.233S275,343.772,275,337.886s6.615-15.314,8.592-17.112c1.825-1.744,21.974-8.556,24.332-9.319a.769.769,0,0,1,.228-.055c.3,4.687.532,13.733.608,23.925.152,19.183-.3,42.563-1.293,48.939-1.6,10.137,2.281,31.99,7.528,48.449A51.38,51.38,0,0,1,316.821,449.062Z" transform="translate(-148.705 -187.251)" fill="#dbdbd9"/>
        <path id="Path_63" data-name="Path 63" d="M322.586,559.7c-2.2,2.888-3.878,4.959-3.878,4.959S304.946,538.174,292.4,529.4C292.324,529.4,316.047,539.482,322.586,559.7Z" transform="translate(-161.618 -286.632)" fill="#282828" opacity="0.22"/>
        <path id="Path_64" data-name="Path 64" d="M314.122,606.766S302.413,597.61,292.3,593.9C292.3,593.9,312.069,590.852,314.122,606.766Z" transform="translate(-161.594 -315.943)" fill="#282828" opacity="0.22"/>
        <path id="Path_65" data-name="Path 65" d="M640.825,479.551c-3.346,5.777-10.113,12.753-17.26,18.911a3.369,3.369,0,0,0-.456.436q-2.623,2.207-5.246,4.251c-5.931,4.578-11.71,8.229-15.664,9.755-10.341,4.033-22.43,13.406-30.262,18.965.228-5.722,2.509-12.534,2.965-14.551.38-1.744-9.961.6-15.055-4.9a28.339,28.339,0,0,1-5.247-7.793s2.281-12.535,2.357-15.968h0c.076-2.888.3-5.5,1.217-5.341a21.891,21.891,0,0,0,9.124-1.581,11.193,11.193,0,0,0,2.585-1.471h0c.152-.109.3-.272.456-.382a5.536,5.536,0,0,0,1.6-3.215c.38-4.2-8.136-9.1-13.154-13.243-2.129-1.744-3.65-3.379-3.65-4.741a3.642,3.642,0,0,1,.228-1.253c.76-2.561,3.193-5.341,5.322-7.63a22.658,22.658,0,0,0,3.193-3.815c.3-.6-.3-3.379-1.292-7.03-2.357-8.829-7.071-22.671-7.071-22.671,13.915-20.546,35.2-50.629,36.649-52.482a4.113,4.113,0,0,1,2.813-1.526,4.817,4.817,0,0,0,.989-.273,1.78,1.78,0,0,0,1.141-1.635V360.2c7.223,8.72,27.069,69.866,27.829,75.7.608,4.687,11.938,27.576,16.272,36.187A7.7,7.7,0,0,1,640.825,479.551Z" transform="translate(-224.452 -209.509)" fill="#dbdbd9"/>
        <path id="Path_66" data-name="Path 66" d="M588.071,548.1c-2.737,2.671-13.078,8.175-16.5,11.281a4.483,4.483,0,0,0,.532-1.744c.456-5.995-16.956-13.406-16.8-17.984a3.645,3.645,0,0,1,.228-1.253s.608,6.213,14.9,5.286C584.65,542.814,591.265,544.94,588.071,548.1Z" transform="translate(-224.619 -290.726)" fill="#282828" opacity="0.22"/>
        <path id="Path_67" data-name="Path 67" d="M559.2,581.859s35.2.164,41.287-4.959C600.564,576.9,575.472,596.3,559.2,581.859Z" transform="translate(-225.554 -308.286)" fill="#282828" opacity="0.22"/>
        <path id="Path_68" data-name="Path 68" d="M562.771,440.251c-2.357-8.829-7.071-22.671-7.071-22.671,13.914-20.546,35.2-50.629,36.649-52.482a4.113,4.113,0,0,1,2.813-1.526,4.824,4.824,0,0,0,.988-.272c-4.942,10.246-15.968,33.462-23.647,50.52-3.8,8.556-6.843,15.532-7.756,18.529A69.025,69.025,0,0,0,562.771,440.251Z" transform="translate(-224.715 -210.845)" fill="#282828" opacity="0.22"/>
        <path id="Path_69" data-name="Path 69" d="M540.729,322.266a4.275,4.275,0,0,0-2.813,1.526c-1.445,1.853-22.735,31.936-36.649,52.482-5.475,8.12-9.733,14.714-11.253,17.548-.76,1.471-1.6,3.215-2.357,5.068-4.258,9.973-8.82,24.088-9.656,26.7a1.492,1.492,0,0,0,0,.817c.912,3.052,6.539,22.235,8.516,32.1-9.581,8.066-18.4,10.518-30.262,12.971-5.17,1.09-19.465,1.417-36.117,1.417-13.686,0-28.97-.273-42.124-.545-17.716-.382-31.555-.817-32.467-.817-2.433,0-10.189-10.627-10.417-10.954h0c.38-7.848,6.159-30.628,1.369-45.56a197.189,197.189,0,0,1-6.767-29.047h0c-1.141-7.793-1.521-14.769-.836-19.347,1.6-9.81,1.673-59.294.76-72.864a2.06,2.06,0,0,1,1.369-1.8c.912-.382,2.737-.926,5.323-1.689,4.866-1.417,12.318-3.433,20.15-5.5,7-1.907,14.371-3.869,20.454-5.668h0c4.258-1.2,7.908-2.343,10.493-3.215l26.917,15.259,16.424-8.011L452.755,272.4a23.789,23.789,0,0,0,6.311,3.924c.608.272,1.217.49,1.825.763.3.109.532.218.836.327,3.041,1.308,6.539,2.779,10.341,4.36,6.083,2.561,12.926,5.45,19.465,8.175,1.749.708,3.5,1.471,5.17,2.18,9.961,4.142,18.781,7.739,23.115,9.428a51.84,51.84,0,0,1,22.735,18.093C543.314,320.631,542.4,321.993,540.729,322.266Z" transform="translate(-170.281 -169.42)" fill="#dbdbd9"/>
        <path id="Path_70" data-name="Path 70" d="M408.007,1264.341a5.614,5.614,0,0,1-.836.926,4.4,4.4,0,0,1-.912.545c-5.855,1.962-56.495,19.129-66.379,19.565-7.147.327-19.313-1.036-26.232-1.908-3.041-.381-5.246-2.289-5.246-4.469,0-1.8,1.521-3.434,3.8-4.2,8.288-2.616,27.753-9.1,32.011-14.224a1.508,1.508,0,0,0,.228-1.58,157.915,157.915,0,0,1,24.255,8.011C377.137,1270.717,398.122,1266.63,408.007,1264.341Z" transform="translate(-165.452 -619.644)" fill="#282828"/>
        <path id="Path_71" data-name="Path 71" d="M575,1291.909c-1.141.981-8.972,4.578-13.61,6.7a18.415,18.415,0,0,1-7.376,1.526H538.954a16.153,16.153,0,0,1-11.405-4.251l-4.106-4.251a1.5,1.5,0,0,1-.228-1.962l3.726-5.886a1.372,1.372,0,0,0,.152-1.308s4.258,1.907,7.908,0,12.166-5.668,21.974-2.834a103.429,103.429,0,0,0,16.424,2.943c0,.109.076.218.076.273C574.235,1284.933,576.364,1290.765,575,1291.909Z" transform="translate(-216.866 -628.574)" fill="#282828"/>
        <path id="Path_72" data-name="Path 72" d="M547.292,658.579c-20.606-6.1-25.092-37.6-25.092-37.6h0A54.125,54.125,0,0,0,532.921,614c.3,1.362.456,2.507.608,3.433C534.366,624.736,543.11,648.606,547.292,658.579Z" transform="translate(-216.687 -325.258)" fill="#282828" opacity="0.22"/>
        <path id="Path_73" data-name="Path 73" d="M270.959,713.128l4.714-1.744s-3.65-16.077-1.977-17.984c0,0-22.126,4.251-34.6,1.853.532,7.9,1.445,17.385,1.825,22.4C253.623,717.325,270.959,713.128,270.959,713.128Z" transform="translate(-148.845 -361.473)" fill="#383838"/>
        <path id="Path_74" data-name="Path 74" d="M270.6,806.719a2.133,2.133,0,0,1-.684.654c-1.064.817-3.5,2.016-8.288,1.8a4.4,4.4,0,0,1-2.357-.872l-.076-.055a6.747,6.747,0,0,1-1.977-3.815,7.4,7.4,0,0,1-.228-1.853c-.3-4.578,1.141-10.246,2.965-12.48,2.889-3.542.456-12.426.076-13.9.456,1.09,2.585,6.594,3.878,8.992,1.369,2.4-1.521,8.938-2.205,15.15-.076.654-.076,1.308-.152,1.962v.218a3.921,3.921,0,0,0,2.129,3.815h0a9.042,9.042,0,0,0,5.018.654C269.761,806.882,270.522,806.719,270.6,806.719Z" transform="translate(-153.122 -399.278)" fill="#282828" opacity="0.22"/>
        <path id="Path_75" data-name="Path 75" d="M334.818,469.037c-.228-16.131-28.818-42.726-19.237-55.1,9.428-12.208,11.025-54.934,11.177-58.64.152,19.183-.3,42.563-1.293,48.939-1.6,10.137,2.281,31.99,7.528,48.449A51.377,51.377,0,0,1,334.818,469.037Z" transform="translate(-166.703 -207.22)" fill="#282828" opacity="0.22"/>
        <path id="Path_76" data-name="Path 76" d="M274.077,657.5c4.714-9.864,22.735-18.856,26.537-27.3-.076.381-.228.817-.38,1.308h0c-5.475,13.406-25.092,31.554-26.537,33.135,0,0-22.126,4.251-34.6,1.853C239.024,666.5,269.134,667.858,274.077,657.5Z" transform="translate(-148.845 -332.643)" fill="#282828" opacity="0.22"/>
        <path id="Path_77" data-name="Path 77" d="M320.608,626.5c-.076.163-.076.327-.152.545a7.17,7.17,0,0,1-.456,1.144c.38-1.035.608-1.853.76-2.18v-.054C320.836,625.628,320.76,625.737,320.608,626.5Z" transform="translate(-168.232 -330.586)" fill="#eaeaea"/>
        <path id="Path_78" data-name="Path 78" d="M271.486,729.6c-.076,1.362-.152,2.725-.228,3.978-9.276,4.142-21.9,5.559-29.958,5.995a21.164,21.164,0,0,0,.228-4.142c0-.382-.076-.817-.076-1.308C254.15,733.8,271.486,729.6,271.486,729.6Z" transform="translate(-149.372 -377.976)" fill="#282828" opacity="0.22"/>
        <path id="Path_79" data-name="Path 79" d="M328.21,1284.5s12.546,2.943,37.638.055c0,0-27.449,8.992-51.248,2.834Z" transform="translate(-166.938 -631.247)" fill="#fff" opacity="0.19"/>
        <path id="Path_80" data-name="Path 80" d="M528.933,1293.7l-2.433,2.616s3.5,4.959,18.477,4.9,27.981-2.888,26.765-6.594c0,0-1.749,4.414-12.546,3.706C548.322,1297.624,534.56,1299.8,528.933,1293.7Z" transform="translate(-217.718 -635.433)" fill="#fff" opacity="0.19"/>
        <path id="Path_81" data-name="Path 81" d="M585.1,641.722c-2.205,2.561-6.387,4.741-8.972,6.921a74.835,74.835,0,0,1-13.535,8.883c-.608.273-1.14.545-1.749.818.76-3.052,0-5.995-.228-7.793-.38-3.433-13.915-21.636-13.915-21.636v-.054l2.129-1.308,3.954-2.452C569.435,626.789,580.84,635.727,585.1,641.722Z" transform="translate(-222.558 -330.311)" fill="#383838"/>
        <path id="Path_82" data-name="Path 82" d="M429.686,293.959l-6.539-.6c-4.334-.381-8.592,1.036-10.949,3.651l-8.744,9.7-11.253-24.8h0c4.258-1.2,7.908-2.343,10.493-3.215Z" transform="translate(-185.534 -172.199)" fill="#383838"/>
        <path id="Path_83" data-name="Path 83" d="M488.87,277.214,468.949,303.7l-9.58-9.919c-2.433-2.507-6.539-3.815-10.721-3.433l-7.147.6,16.424-8.011L479.9,272.2a23.785,23.785,0,0,0,6.311,3.924c.836.382,1.673.708,2.661,1.09Z" transform="translate(-197.348 -169.233)" fill="#383838"/>
        <path id="Path_84" data-name="Path 84" d="M532.848,811.924c-3.118-14.006-7.756-59.076-8.972-70.357-1.445-13.025-16.272-193.141-16.272-205.13s-3.954-16.24-6.919-22.072c-2.509-5.068-11.481-28.448-14.447-40.165-.076-.218-.076-.381-.152-.545a27.527,27.527,0,0,1-.76-3.978c-.076-.927-.3-2.125-.532-3.433-.532-2.507-1.216-5.613-2.053-8.883-.912-3.706-1.977-7.684-3.041-11.281-1.6-5.722-2.966-10.518-3.422-11.935a1.492,1.492,0,0,1,0-.817c.836-2.616,5.323-16.731,9.656-26.7-.912-4.414-1.749-9.319-2.585-14.279-3.5-21.418-6.083-45.124-6.083-45.124s-1.217-44.361,12.546-49.648c-6.539-2.725-13.306-5.559-19.465-8.175,0,0-12.85-1.362-18.857,59.784-15.207.981-34.824,2.016-52.085,2.016-5.094,0-10.037-.109-14.523-.272-12.014-.545-22.05-1.2-30.034-1.744-2.509-16.077,0-56.732,0-56.732-7.832,2.125-15.207,4.087-20.15,5.5-4.106,18.529-2.509,49.266-2.509,49.266-2.2,10.518-4.106,45.887-4.106,46.432h0A187.962,187.962,0,0,0,334.85,422.7c1.825,5.777,2.129,12.753,1.673,19.565-.3,5.722-1.141,11.39-1.825,16.131-.608,4.2-1.141,7.63-1.293,9.919h0a12.6,12.6,0,0,0,.076,1.853c.3,1.689-.608,4.687-2.129,8.12a149.171,149.171,0,0,1-10.037,18.257c-1.977,3.052,7.528,56.9,11.481,75.207s21.974,208.019,20.986,218.155a54.334,54.334,0,0,1-.989,6.7c-.076.327-.152.6-.228.872a8.261,8.261,0,0,0,.152,5.4c.608,2.234.076,3.216-1.065,3.76-1.216.6-3.117.709-4.866,1.417-2.737,1.144-.228,7.684.684,9.864,0,0,3.422.818,8.288,2.234a129.608,129.608,0,0,1,15.968,5.777c8.364,3.706,29.35-.381,39.234-2.67,6.539-9.1-.532-42.454.076-47.359.532-4.36-2.813-96.461-3.954-144.8v-.055c-.228-9.156-.3-16.676-.3-21.8,0-25.778,3.346-59.839,4.714-72.373.228-1.853,3.346-2.4,4.866-1.09a2.8,2.8,0,0,1,.228.273c10.265,12.425,18.021,43.38,20,51.609,2.281,9.428,4.942,37.113,11.481,63.926s19.693,157.99,20.682,161.477a2.783,2.783,0,0,0,.76,1.308h0c1.977,2.071,6.767,1.962,7.071,4.578.228,2.016-2.357,4.087-4.106,5.613-.913.818-1.6,1.526-1.521,1.908.228.872,4.41,3.651,6.691,5.177a2.311,2.311,0,0,1,.836.981s4.258,1.907,7.908,0a32.932,32.932,0,0,1,13.306-3.815,24.585,24.585,0,0,1,5.247.218,25.439,25.439,0,0,1,3.422.708,103.447,103.447,0,0,0,16.424,2.943,1.194,1.194,0,0,1,.228-.981l6.159-10.791A12.048,12.048,0,0,0,532.848,811.924Z" transform="translate(-168.483 -178.454)" fill="#360505"/>
        <path id="Path_85" data-name="Path 85" d="M489.485,614.394c-12.242,3.76-33.38,8.556-63.566,9.919a400.222,400.222,0,0,1-49.043-.872c-13.078-.981-27.145-2.616-42.276-5.014,1.445-3.433,2.433-6.431,2.129-8.12a12.62,12.62,0,0,1-.076-1.853h0c.076-2.234.684-5.722,1.293-9.919a297.758,297.758,0,0,0,39.311,6.7A204.347,204.347,0,0,0,399,606.383c7.071,0,15.663-.545,24.712-1.308,28.97-2.452,62.2-7.575,62.2-7.575.836,3.27,1.6,6.376,2.053,8.883a25.138,25.138,0,0,1,.532,3.433c.152,1.035.38,2.4.76,3.978A3.505,3.505,0,0,0,489.485,614.394Z" transform="translate(-171.731 -317.706)" fill="#282828"/>
        <path id="Path_86" data-name="Path 86" d="M571.563,942.745a12.1,12.1,0,0,1-1.445,8.829l-6.159,10.791a2.309,2.309,0,0,0-.228.981,103.415,103.415,0,0,1-16.424-2.943,19.111,19.111,0,0,0-3.421-.708l3.574-13.951a55.268,55.268,0,0,0,1.521-18.312c-4.258-49.647-24.179-282.517-26.232-282.681-2.357-.164-9.961-7.085-9.961-7.085-23.191.381-18.021-7.739-28.209-12.807-10.113-5.068,21.9-21.254,21.9-21.254l-11.862-.436c22.127-3.706,23.723-26.268,23.723-26.268,1.9,6.758,4.03,14.824,5.094,20.164a25.149,25.149,0,0,1,.532,3.433c.152,1.036.38,2.4.76,3.978,2.813,11.5,12.014,35.533,14.6,40.71,2.965,5.886,6.919,10.082,6.919,22.072s14.751,192.051,16.272,205.13C563.807,883.724,568.445,928.739,571.563,942.745Z" transform="translate(-207.198 -309.274)" fill="#282828" opacity="0.4"/>
        <path id="Path_87" data-name="Path 87" d="M439.746,729.506c-1.521-1.362-4.714-.763-4.866,1.09-1.369,12.589-4.714,46.65-4.714,72.373,0,5.123.152,12.7.3,21.8-.228-1.744-6.235-55.969-5.551-75.153A75.131,75.131,0,0,0,418,715.5C428.949,718.552,438.074,727.762,439.746,729.506Z" transform="translate(-191.717 -371.694)" fill="#282828" opacity="0.6"/>
        <path id="Path_88" data-name="Path 88" d="M386.012,1238.276c-.836.981-15.055-4.742-24.712-7.521,1.141-.545,1.673-1.472,1.064-3.76a8.261,8.261,0,0,1-.152-5.4c.076,1.144,1.064,3.433,7.071,6.322C378.18,1232.118,387,1237.078,386.012,1238.276Z" transform="translate(-178.129 -602.626)" fill="#282828" opacity="0.53"/>
        <path id="Path_89" data-name="Path 89" d="M529.806,1260.03a29.914,29.914,0,0,0-10.341,2.561c1.749-1.526,4.258-3.6,4.106-5.613-.3-2.616-5.094-2.507-7.071-4.578.608.218,11.938,4.523,21.822,2.452C548.511,1252.727,545.241,1258.831,529.806,1260.03Z" transform="translate(-215.321 -616.641)" fill="#282828" opacity="0.53"/>
        <path id="Path_90" data-name="Path 90" d="M545.172,650.936c.228,1.8.988,4.8.228,7.793-17.64,7.466-34.824-1.471-34.824-1.471-12.7,1.635-15.892-5.014-15.892-5.014-10.113.708-10.037-4.959-10.037-4.959-13-6.322,39.463-21.309,39.463-21.309,5.17-.381,7.147,3.215,7.223,3.379C531.257,629.3,544.716,647.449,545.172,650.936Z" transform="translate(-207.192 -330.701)" fill="#683d2d"/>
        <path id="Path_91" data-name="Path 91" d="M485.2,654.161a67.04,67.04,0,0,1,9.2-4.578c3.193-1.362,6.463-2.507,9.809-3.6,3.346-1.035,6.767-2.016,10.265-2.834a75.946,75.946,0,0,1,10.873-1.853l.152.218-20.073,6.54-20.15,6.322Z" transform="translate(-207.821 -337.681)" fill="#686868"/>
        <path id="Path_92" data-name="Path 92" d="M498.4,666.629a42.29,42.29,0,0,1,7.452-3.6c2.585-1.036,5.247-1.8,7.984-2.616a81.8,81.8,0,0,1,8.364-1.8,52.316,52.316,0,0,1,8.9-.817l.076.218L514.9,662.541l-16.424,4.305Z" transform="translate(-210.984 -345.207)" fill="#686868"/>
        <path id="Path_93" data-name="Path 93" d="M519.3,677.685a20.05,20.05,0,0,1,5.323-3,45.318,45.318,0,0,1,5.855-2.016,58.967,58.967,0,0,1,6.235-1.253,34.44,34.44,0,0,1,6.767-.272l.076.218-12.09,3.379L519.3,677.9Z" transform="translate(-215.992 -351.265)" fill="#686868"/>
        <path id="Path_94" data-name="Path 94" d="M120.476,960.757h0c0,.109-.076.054-.076-.055C120.4,960.539,120.4,960.539,120.476,960.757Z" transform="translate(-120.4 -483.378)" fill="none" stroke="#09151e" stroke-miterlimit="10" stroke-width="1"/>
        <path id="Path_95" data-name="Path 95" d="M358.162,351.732,335.5,349.77s-1.6-30.682,2.509-49.266c4.866-1.417,12.318-3.433,20.149-5.5C358.162,295,355.577,335.655,358.162,351.732Z" transform="translate(-171.874 -179.652)" fill="#282828"/>
        <path id="Path_96" data-name="Path 96" d="M518.276,347.22,492.5,349.182c6.007-61.147,18.857-59.784,18.857-59.784,6.083,2.561,12.926,5.45,19.465,8.175C517.06,302.859,518.276,347.22,518.276,347.22Z" transform="translate(-209.57 -177.095)" fill="#282828"/>
        <path id="Path_97" data-name="Path 97" d="M353.753,393.549c0,3.672-4.153,6.649-9.276,6.649s-9.276-2.977-9.276-6.649,4.153-6.649,9.276-6.649S353.753,389.877,353.753,393.549Z" transform="translate(-171.875 -221.574)" fill="#d8a31e"/>
        <path id="Path_98" data-name="Path 98" d="M508.553,393.549c0,3.672-4.153,6.649-9.276,6.649S490,397.221,490,393.549s4.153-6.649,9.276-6.649,9.276,2.977,9.276,6.649Z" transform="translate(-208.971 -221.574)" fill="#d8a31e"/>
        <path id="Path_99" data-name="Path 99" d="M478.394,519.282a1.494,1.494,0,0,0,0,.818L406.16,561.137a18.159,18.159,0,0,1-17.944-.436L338.64,528.22c.38-6.812.152-13.788-1.673-19.565a197.188,197.188,0,0,1-6.767-29.047s11.481,21.2,17.792,22.29c5.018.872,36.5-9.973,48.967-14.387a14.453,14.453,0,0,1,10.037.218l30.11,12.1a12.361,12.361,0,0,0,10.037-.491L485.466,478.3c.836,5.014,1.673,9.864,2.585,14.278C483.793,502.5,479.23,516.667,478.394,519.282Z" transform="translate(-170.676 -263.355)" fill="#282828" opacity="0.4"/>
        <path id="Path_100" data-name="Path 100" d="M391.082,605.791c-.076-.055-.076-.055,0-.109Z" transform="translate(-185.252 -321.402)" fill="#282828"/>
        <path id="Path_101" data-name="Path 101" d="M439.122,630.738c-10.949.491-23.039.545-36.345-.109-4.106-.218-8.364-.436-12.774-.763-.684-5.123-.076-13.516.38-18.2a204.362,204.362,0,0,0,21.746,1.144c7.071,0,15.664-.545,24.712-1.308C437.374,616.35,438.21,625.451,439.122,630.738Z" transform="translate(-184.934 -324.088)" fill="#dbdbdb"/>
        <path id="Path_102" data-name="Path 102" d="M439.339,630.738c-10.949.491-23.039.545-36.345-.109,32.848-.436,32.163-5.014,31.479-8.938-.76-3.924-1.293-6.267-17.793-5.886s-26.08-4.142-26.08-4.142a204.4,204.4,0,0,0,21.746,1.145c7.071,0,15.663-.545,24.712-1.308C437.59,616.35,438.427,625.452,439.339,630.738Z" transform="translate(-185.151 -324.088)" fill="#b7b7b7"/>
        <path id="Path_103" data-name="Path 103" d="M383.412,122.516s-8.744-17.766-3.194-27.467c2.509-4.36,11.329-7.412,20.226-9.374a119.963,119.963,0,0,1,44.329-1.526c9.352,1.471,18.857,4.087,22.431,8.938,7.984,10.682-5.322,28.938-5.322,28.938S422.647,103.169,383.412,122.516Z" transform="translate(-182.221 -82.772)" fill="#dbdbd9"/>
        <path id="Path_104" data-name="Path 104" d="M501.9,106.261C498.783,97.378,485.629,92.8,485.629,92.8h0a17.216,17.216,0,0,1,6.843,4.8c7.984,10.682-5.323,28.938-5.323,28.938s-1.293-.6-3.65-1.526c1.064,1.8,2.129,3.488,2.129,3.488l10.873,6.158C496.5,134.6,505.018,115.144,501.9,106.261Z" transform="translate(-207.413 -87.335)" fill="#0d3760"/>
        <path id="Path_105" data-name="Path 105" d="M373.6,156.655s21.214-16.949,41.516-18.257,39.311,15.859,45.7,15.859c6.387.054,9.352,0,9.352,0S460.281,136,415.04,136C415.04,136,384.7,135.891,373.6,156.655Z" transform="translate(-181.077 -106.992)" fill="#144681"/>
        <g id="Group_3" data-name="Group 3" transform="translate(221.284 5.22)">
          <path id="Path_106" data-name="Path 106" d="M411.482,102.187c.076-.327.532-.545.988-.545a3.7,3.7,0,0,0,3.194-1.526,2,2,0,0,0-.836-2.725.5.5,0,0,1-.152-.817,17.175,17.175,0,0,1,2.433-1.8,1.109,1.109,0,0,1,1.217.109,4.727,4.727,0,0,0,3.878.6c1.293-.381,2.2-1.362,2.053-2.4,0-.327.3-.6.76-.654a18.747,18.747,0,0,1,3.5,0c.456.054.76.327.76.654a1.884,1.884,0,0,0,.532,1.362,3.23,3.23,0,0,0-.532.381l-.38.272h0a4.79,4.79,0,0,0-1.445,2.016,3.1,3.1,0,0,0-.152.817h-.456c-4.258,0-7.68,2.452-7.68,5.5v.272a10.391,10.391,0,0,0-2.205.381,9.341,9.341,0,0,0-2.205,1.035h0a3.741,3.741,0,0,0-.532.436,4.28,4.28,0,0,0-1.673-.327h-.152a.873.873,0,0,1-.912-.545,13.8,13.8,0,0,1,0-2.507Zm28.057-.926a4.782,4.782,0,0,0,1.825.327c.532,0,.836.218.912.545a6.941,6.941,0,0,1,0,2.507c-.076.327-.608.545-1.064.545a3.794,3.794,0,0,0-3.193,1.526,2,2,0,0,0,.836,2.725.457.457,0,0,1,.076.817,13.7,13.7,0,0,1-2.433,1.8,1.216,1.216,0,0,1-1.217-.054,4.727,4.727,0,0,0-3.878-.6c-1.293.381-2.205,1.362-2.053,2.4,0,.327-.3.6-.76.654-.608.055-1.217.109-1.825.109a16.394,16.394,0,0,1-1.673-.054c-.456-.055-.76-.327-.76-.654a2.1,2.1,0,0,0-.532-1.417c.152-.109.38-.218.532-.327a4.773,4.773,0,0,0,1.825-2.289,3.1,3.1,0,0,0,.152-.817h.456c4.258,0,7.68-2.452,7.68-5.5v-.272a9.621,9.621,0,0,0,2.205-.381,6.85,6.85,0,0,0,2.205-1.09h0l.684-.49Z" transform="translate(-411.425 -92.35)" fill="#383838"/>
          <path id="Path_107" data-name="Path 107" d="M420.394,106.1a3.941,3.941,0,0,1,.836.055c.3.055.608.109.836.163l.228.055.152-.109,7-4.959.152-.109-.076-.163a3.1,3.1,0,0,1-.152-2.18,3.911,3.911,0,0,1,1.521-1.907h0a6.435,6.435,0,0,1,1.825-.872,6.838,6.838,0,0,1,2.129-.272,9.171,9.171,0,0,1,1.217.109,9.755,9.755,0,0,1,1.217.272h0v.055h0l-3.726,2.67a1,1,0,0,0-.38,1.417,1.949,1.949,0,0,0,.38.436h0a2.381,2.381,0,0,0,2.585,0h0l3.726-2.67h0v.054a2.794,2.794,0,0,1,.456,2.4,4.035,4.035,0,0,1-1.6,2.18h0a6.435,6.435,0,0,1-1.825.872,7.217,7.217,0,0,1-2.129.327,5.132,5.132,0,0,1-.912-.054c-.3-.055-.608-.109-.836-.164l-.228-.054-.152.109-7,4.959-.152.109.076.163a3.1,3.1,0,0,1,.152,2.18,3.912,3.912,0,0,1-1.521,1.907,5.248,5.248,0,0,1-1.825.872,6.839,6.839,0,0,1-2.129.272,9.173,9.173,0,0,1-1.217-.109,9.751,9.751,0,0,1-1.217-.272h0v-.054h0l3.726-2.67a1.321,1.321,0,0,0,.532-.926h0a1.223,1.223,0,0,0-.152-.49,1.949,1.949,0,0,0-.38-.436h0a2.381,2.381,0,0,0-2.585,0h0l-3.726,2.67h0a2.8,2.8,0,0,1-.456-2.4,4.035,4.035,0,0,1,1.6-2.18h0a6.436,6.436,0,0,1,1.825-.872,6.57,6.57,0,0,1,2.205-.381Z" transform="translate(-412.202 -93.92)" fill="#383838" fill-rule="evenodd"/>
        </g>
        <path id="Path_108" data-name="Path 108" d="M255.739,828.269l-4.486,1.962-22.887,10.137v8.992a2.263,2.263,0,0,1-2.433,2.125,2.3,2.3,0,0,1-2.433-2.125v-10.3a2.14,2.14,0,0,1,1.369-1.908l24.408-10.845,4.334-1.907A4.063,4.063,0,0,0,255.739,828.269Z" transform="translate(-145.107 -421.269)" fill="#231f20"/>
      </g>
    </g>
  </g>
</svg>
