<svg xmlns="http://www.w3.org/2000/svg"  viewBox="0 0 133.394 86.505">
  <g id="kitchen--icon" opacity="0.6">
    <path id="Path_157" data-name="Path 157" d="M141.644,251.3h-3.763a1.665,1.665,0,1,1,0-3.3h3.763a1.665,1.665,0,1,1,0,3.3Z" transform="translate(-102.285 -206.398)" fill="#a8a8a8"/>
    <path id="Path_158" data-name="Path 158" d="M113.407,232.5a1.777,1.777,0,0,1-1.881-1.65v-9.9a1.9,1.9,0,0,0-3.763,0v3.3a1.9,1.9,0,0,1-3.763,0v-3.3c0-2.734,2.527-4.951,5.644-4.951s5.644,2.217,5.644,4.951v9.9A1.777,1.777,0,0,1,113.407,232.5Z" transform="translate(-79.126 -180.999)" fill="#cbcbcb"/>
    <path id="Path_159" data-name="Path 159" d="M247.525,235.3h-5.644a1.665,1.665,0,1,1,0-3.3h5.644a1.665,1.665,0,1,1,0,3.3Z" transform="translate(-176.879 -193.598)" fill="#cbcbcb"/>
    <path id="Path_160" data-name="Path 160" d="M24.941,324.308h77.136a.889.889,0,0,0,.941-.825V288.825a.889.889,0,0,0-.941-.825H95.492v1.65H65.39V288H24.941a.889.889,0,0,0-.941.825v34.658A.889.889,0,0,0,24.941,324.308Z" transform="translate(-22.119 -239.454)" fill="#462c11"/>
    <path id="Path_161" data-name="Path 161" d="M200,288h30.1v9.9H200Z" transform="translate(-146.006 -238.528)" fill="#cbcbcb"/>
    <rect id="Rectangle_2" data-name="Rectangle 2" width="30.659" height="50.065" rx="15.329" transform="translate(100.576 35.001)" fill="#6ee7f5"/>
    <g id="Group_54" data-name="Group 54" transform="translate(101.411 41.21)">
      <path id="Path_162" data-name="Path 162" d="M360,304h30.1v1.65H360Z" transform="translate(-360 -292.447)" fill="#2cbff4"/>
      <path id="Path_163" data-name="Path 163" d="M385.881,254.6a1.777,1.777,0,0,1-1.881-1.65v-3.3a1.9,1.9,0,0,1,3.763,0v3.3A1.777,1.777,0,0,1,385.881,254.6Z" transform="translate(-378.356 -248)" fill="#2cbff4"/>
      <path id="Path_164" data-name="Path 164" d="M385.881,334.6a1.777,1.777,0,0,1-1.881-1.65v-3.3a1.9,1.9,0,0,1,3.763,0v3.3A1.777,1.777,0,0,1,385.881,334.6Z" transform="translate(-378.356 -311.496)" fill="#2cbff4"/>
    </g>
    <path id="Path_165" data-name="Path 165" d="M0,0H30.1V19.8H0Z" transform="translate(84.096 78.253) rotate(180)" fill="#eaeae8"/>
    <path id="Path_166" data-name="Path 166" d="M249.407,363.3h-7.525a1.665,1.665,0,1,1,0-3.3h7.525a1.665,1.665,0,1,1,0,3.3Z" transform="translate(-176.686 -295.997)" fill="#2cbff4"/>
    <path id="Path_167" data-name="Path 167" d="M0,0H26.339V9.9H0Z" transform="translate(35.746 78.253) rotate(180)" fill="#f1d2c3"/>
    <path id="Path_168" data-name="Path 168" d="M0,0H26.339V6.6H0Z" transform="translate(35.746 62.534) rotate(180)" fill="#f1d2c3"/>
    <path id="Path_169" data-name="Path 169" d="M280,264h11.288v4.951H280Z" transform="translate(-205.38 -219.225)" fill="#2cbff4"/>
    <path id="Path_170" data-name="Path 170" d="M200,264h11.288v4.951H200Z" transform="translate(-147.992 -219.225)" fill="#2cbff4"/>
    <path id="Path_171" data-name="Path 171" d="M200,232h11.288v3.3a3.558,3.558,0,0,1-3.766,3.3h-3.755A3.558,3.558,0,0,1,200,235.3Z" transform="translate(-147.992 -193.646)" fill="#90d32b"/>
    <path id="Path_172" data-name="Path 172" d="M296,48h45.153V64.5H296Z" transform="translate(-209.64 -46.35)" fill="#462c11"/>
    <path id="Path_173" data-name="Path 173" d="M313.881,78.6A1.777,1.777,0,0,1,312,76.951v-3.3a1.9,1.9,0,0,1,3.763,0v3.3A1.777,1.777,0,0,1,313.881,78.6Z" transform="translate(-229.304 -65.399)" fill="#533222"/>
    <path id="Path_174" data-name="Path 174" d="M409.881,78.6A1.777,1.777,0,0,1,408,76.951v-3.3a1.9,1.9,0,0,1,3.763,0v3.3A1.777,1.777,0,0,1,409.881,78.6Z" transform="translate(-295.301 -65.399)" fill="#533222"/>
    <path id="Path_175" data-name="Path 175" d="M296,128h45.153v4.951H296Z" transform="translate(-209.64 -110.41)" fill="#cbcbcb"/>
    <path id="Path_176" data-name="Path 176" d="M97.881,85.2A1.777,1.777,0,0,1,96,83.553v-9.9a1.9,1.9,0,0,1,3.763,0v9.9A1.777,1.777,0,0,1,97.881,85.2Z" transform="translate(-73.65 -65.399)" fill="#6ee7f5"/>
    <path id="Path_177" data-name="Path 177" d="M82.814,137.9H64l5.644-9.9H77.17Z" transform="translate(-52.712 -110.445)" fill="red"/>
    <path id="Path_178" data-name="Path 178" d="M217.881,85.2A1.777,1.777,0,0,1,216,83.553v-9.9a1.9,1.9,0,0,1,3.763,0v9.9A1.777,1.777,0,0,1,217.881,85.2Z" transform="translate(-160.124 -65.399)" fill="#6ee7f5"/>
    <path id="Path_179" data-name="Path 179" d="M202.814,137.9H184l5.644-9.9h7.525Z" transform="translate(-135.876 -110.445)" fill="red"/>
    <path id="Path_180" data-name="Path 180" d="M24,48H87.966v6.6H24Z" transform="translate(-22.119 -46.35)" fill="#bc3030"/>
    <path id="Path_181" data-name="Path 181" d="M35.763,248a3.555,3.555,0,0,1,3.763,3.3v4.951H32V251.3A3.555,3.555,0,0,1,35.763,248Z" transform="translate(-28.237 -206.478)" fill="#6ee7f5"/>
    <ellipse id="Ellipse_18" data-name="Ellipse 18" cx="1.967" cy="1.725" rx="1.967" ry="1.725" transform="translate(57.719 52.891)" fill="#eaeae8"/>
    <ellipse id="Ellipse_19" data-name="Ellipse 19" cx="1.967" cy="1.725" rx="1.967" ry="1.725" transform="translate(67.067 52.891)" fill="#eaeae8"/>
    <ellipse id="Ellipse_20" data-name="Ellipse 20" cx="1.573" cy="1.725" rx="1.573" ry="1.725" transform="translate(76.328 52.891)" fill="#eaeae8"/>
    <path id="Path_182" data-name="Path 182" d="M32,280h7.525v1.65H32Z" transform="translate(-28.237 -231.969)" fill="#2cbff4"/>
    <path id="Path_183" data-name="Path 183" d="M280,48h3.763v6.6H280Z" transform="translate(-206.244 -46.35)" fill="#a8a8a8"/>
    <path id="Path_184" data-name="Path 184" d="M376,48h3.763V64.5H376Z" transform="translate(-275.424 -46.35)" fill="#533222"/>
    <path id="Path_185" data-name="Path 185" d="M65.39,289.65H24v-.825a.889.889,0,0,1,.941-.825H65.39Z" transform="translate(-22.119 -238.368)" fill="#533222"/>
    <path id="Path_186" data-name="Path 186" d="M328,288h6.585a.889.889,0,0,1,.941.825v.825H328Z" transform="translate(-240.341 -238.368)" fill="#533222"/>
    <path id="Path_187" data-name="Path 187" d="M216,80h3.763v3.3H216Z" transform="translate(-160.124 -71.748)" fill="#2cbff4"/>
    <path id="Path_188" data-name="Path 188" d="M96,80h3.763v3.3H96Z" transform="translate(-73.65 -71.748)" fill="#2cbff4"/>
    <path id="Path_189" data-name="Path 189" d="M200,336h30.1v1.65H200Z" transform="translate(-146.006 -276.762)" fill="#a8a8a8"/>
    <path id="Path_190" data-name="Path 190" d="M385.881,254.6a1.777,1.777,0,0,0,1.881-1.65v-3.3a1.9,1.9,0,0,0-3.763,0v3.3A1.777,1.777,0,0,0,385.881,254.6Z" transform="translate(-281.189 -206.45)"/>
    <path id="Path_191" data-name="Path 191" d="M385.881,328A1.777,1.777,0,0,0,384,329.65v3.3a1.9,1.9,0,0,0,3.763,0v-3.3A1.777,1.777,0,0,0,385.881,328Z" transform="translate(-281.189 -270.47)"/>
    <path id="Path_192" data-name="Path 192" d="M113.172,268.328a8.594,8.594,0,0,0,2.874.484h26.679c3.682,0,6.666-2.218,6.67-4.951V220.951c0-2.733-2.988-4.948-6.67-4.951H116.046c-3.682,0-6.666,2.218-6.67,4.951V229.2H104.93v-3.3c0-.911-1-1.65-2.223-1.65H89.367c-1.228,0-2.223.739-2.223,1.65v3.3H82.7v-3.3a1.469,1.469,0,0,0-.653-1.168A3.909,3.909,0,0,0,82.7,222.6h4.446c1.228,0,2.223-.739,2.223-1.65s-1-1.65-2.223-1.65H82.7c0-.911-1-1.65-2.223-1.65H67.135c-1.228,0-2.223.739-2.223,1.65v3.3a3.908,3.908,0,0,0,.653,2.136,1.469,1.469,0,0,0-.653,1.168v3.3H53.8v-3.3h2.223c1.228,0,2.223-.739,2.223-1.65s-1-1.65-2.223-1.65H53.8v-1.65c0-2.734-2.986-4.951-6.67-4.951s-6.67,2.217-6.67,4.951v3.3c0,.911,1,1.65,2.223,1.65s2.223-.739,2.223-1.65v-3.3c0-.911,1-1.65,2.223-1.65s2.223.739,2.223,1.65V229.2H31.563v-3.3c0-2.734-2.986-4.951-6.67-4.951s-6.67,2.217-6.67,4.951v3.3c-1.228,0-2.223.739-2.223,1.65v36.308c0,.911,1,1.65,2.223,1.65H111.6A2.655,2.655,0,0,0,113.172,268.328Zm29.553-2.817H116.046c-1.227,0-2.222-.739-2.223-1.65V235.8h31.125v28.056C144.947,264.772,143.952,265.51,142.725,265.511Zm-28.9-44.56c0-.911,1-1.649,2.223-1.65h26.679c1.227,0,2.222.739,2.223,1.65V232.5H113.823ZM100.483,232.5v6.6H69.358v-6.6Zm-31.125,9.9h31.125v16.5H69.358ZM91.59,227.553h8.893v1.65H91.59ZM69.358,229.2v-1.65h8.893v1.65Zm0-8.252h8.893V222.6c0,.913-1,1.653-2.228,1.654H71.586c-1.23,0-2.227-.741-2.228-1.654ZM22.67,225.9c0-.911,1-1.65,2.223-1.65s2.223.739,2.223,1.65v3.3H22.67Zm86.706,39.609H20.446V232.5H64.911V260.56c0,.911,1,1.65,2.223,1.65h35.572c1.228,0,2.223-.739,2.223-1.65V232.5h4.446Z" transform="translate(-16 -182.307)"/>
    <path id="Path_193" data-name="Path 193" d="M249.407,360h-7.525a1.665,1.665,0,1,0,0,3.3h7.525a1.665,1.665,0,1,0,0-3.3Z" transform="translate(-176.686 -295.997)"/>
    <path id="Path_194" data-name="Path 194" d="M76.22,376H49.881A1.777,1.777,0,0,0,48,377.65v9.9a1.777,1.777,0,0,0,1.881,1.65H76.22a1.777,1.777,0,0,0,1.881-1.65v-9.9A1.777,1.777,0,0,0,76.22,376Zm-1.881,9.9H51.763v-6.6H74.339Z" transform="translate(-40.475 -309.3)"/>
    <path id="Path_195" data-name="Path 195" d="M76.22,312H49.881A1.777,1.777,0,0,0,48,313.65v6.6a1.777,1.777,0,0,0,1.881,1.65H76.22a1.777,1.777,0,0,0,1.881-1.65v-6.6A1.777,1.777,0,0,0,76.22,312Zm-1.881,6.6H51.763v-3.3H74.339Z" transform="translate(-40.475 -257.74)"/>
    <path id="Path_196" data-name="Path 196" d="M313.881,78.6a1.777,1.777,0,0,0,1.881-1.65v-3.3a1.9,1.9,0,0,0-3.763,0v3.3A1.777,1.777,0,0,0,313.881,78.6Z" transform="translate(-229.304 -65.399)"/>
    <path id="Path_197" data-name="Path 197" d="M409.881,78.6a1.777,1.777,0,0,0,1.881-1.65v-3.3a1.9,1.9,0,0,0-3.763,0v3.3A1.777,1.777,0,0,0,409.881,78.6Z" transform="translate(-295.301 -65.399)"/>
    <path id="Path_198" data-name="Path 198" d="M18.223,49.9H38.232v6.6H36.009a2.4,2.4,0,0,0-1.988.912l-6.67,9.9a1.291,1.291,0,0,0,.1,1.606,2.473,2.473,0,0,0,1.891.783H51.572a2.473,2.473,0,0,0,1.891-.783,1.291,1.291,0,0,0,.1-1.606l-6.67-9.9A2.4,2.4,0,0,0,44.9,56.5H42.679V49.9h28.9v6.6H69.358a2.4,2.4,0,0,0-1.988.912l-6.67,9.9a1.291,1.291,0,0,0,.1,1.606,2.473,2.473,0,0,0,1.891.783H84.92a2.473,2.473,0,0,0,1.891-.783,1.291,1.291,0,0,0,.1-1.606l-6.67-9.9a2.4,2.4,0,0,0-1.988-.912H76.027V49.9H91.59v13.2c0,.911,1,1.65,2.223,1.65h53.358c1.228,0,2.223-.739,2.223-1.65V41.65c0-.911-1-1.65-2.223-1.65H18.223C17,40,16,40.739,16,41.65v6.6C16,49.163,17,49.9,18.223,49.9Zm29.751,16.5H32.937l4.446-6.6h6.145Zm33.349,0H66.285l4.446-6.6h6.145ZM96.037,43.3h20.009V56.5H96.037Zm48.911,18.154H96.037V59.8h48.911Zm0-4.951H120.492V43.3h24.456ZM20.446,43.3H91.59v3.3H20.446Z" transform="translate(-16 -40)"/>
    <ellipse id="Ellipse_21" data-name="Ellipse 21" cx="1.967" cy="1.725" rx="1.967" ry="1.725" transform="translate(57.719 52.891)"/>
    <ellipse id="Ellipse_22" data-name="Ellipse 22" cx="1.967" cy="1.725" rx="1.967" ry="1.725" transform="translate(67.067 52.891)"/>
    <ellipse id="Ellipse_23" data-name="Ellipse 23" cx="1.573" cy="1.725" rx="1.573" ry="1.725" transform="translate(76.328 52.891)"/>
  </g>
</svg>
