<svg xmlns="http://www.w3.org/2000/svg" width="141.563" height="153.055" viewBox="0 0 141.563 153.055">
  <g id="paint" opacity="0.6">
    <path id="Path_199" data-name="Path 199" d="M253.5,34.291v93.147a10.615,10.615,0,0,0,21.229,0V112.272a10.615,10.615,0,0,1,21.23,0v49.871a10.615,10.615,0,0,0,21.229,0V34.291A2.989,2.989,0,0,0,314.2,31.3h-57.71a2.989,2.989,0,0,0-2.989,2.989Zm0,0" transform="translate(-177.872 -21.944)" fill="#ef3f7a"/>
    <path id="Path_200" data-name="Path 200" d="M431.251,31.3a2.989,2.989,0,0,1,2.989,2.989V162.141a10.619,10.619,0,0,1-13.779,10.135,10.62,10.62,0,0,0,7.45-10.135V31.3Zm0,0" transform="translate(-294.92 -21.944)" fill="#ef3f7a"/>
    <path id="Path_201" data-name="Path 201" d="M58.121,226.588l3.809-3.808-8.705-8.705-3.808,3.808a127.288,127.288,0,0,1-25.55,19.539,35.821,35.821,0,0,0-7.078,5.533c-8.18,8.18-11.172,18.452-6.682,22.942s14.761,1.5,22.942-6.682a35.821,35.821,0,0,0,5.533-7.078,127.25,127.25,0,0,1,19.538-25.55Zm0,0" transform="translate(-5.772 -150.08)" fill="#64bdff"/>
    <path id="Path_202" data-name="Path 202" d="M63.09,233.408l-3.809,3.808a127.224,127.224,0,0,0-19.538,25.551,35.8,35.8,0,0,1-5.534,7.076c-8.179,8.179-18.451,11.172-22.941,6.681a6.724,6.724,0,0,1-1.593-2.579c5.157,1.8,13.5-1.411,20.36-8.274a35.7,35.7,0,0,0,5.534-7.076,127.267,127.267,0,0,1,19.538-25.551l3.809-3.808Zm0,0" transform="translate(-6.933 -160.708)" fill="#43a3f9"/>
    <path id="Path_203" data-name="Path 203" d="M181.146,84.762,136.457,40.073,167.919,8.61a3.826,3.826,0,0,1,5.408,0l39.281,39.282a3.822,3.822,0,0,1,0,5.407Zm0,0" transform="translate(-95.815 -5.252)" fill="#ffd730"/>
    <path id="Path_204" data-name="Path 204" d="M307,137.752l-31.461,31.461-4.44-4.44,31.464-31.461a3.823,3.823,0,0,0,.044-5.36L307,132.343a3.823,3.823,0,0,1,0,5.409Zm0,0" transform="translate(-190.206 -89.703)" fill="#ffdf46"/>
    <path id="Path_205" data-name="Path 205" d="M131.481,166.679,88.037,123.235a3.823,3.823,0,0,1,0-5.408l11.9-11.9a3.823,3.823,0,0,1,5.408,0l43.444,43.444a3.823,3.823,0,0,1,0,5.408l-11.9,11.9A3.823,3.823,0,0,1,131.481,166.679Zm0,0" transform="translate(-61.084 -73.48)" fill="#afe0ff"/>
    <path id="Path_206" data-name="Path 206" d="M410.372,23.8h-17.45a2.242,2.242,0,1,0,0,4.484h17.45a.748.748,0,0,1,.747.747v87.845a2.242,2.242,0,1,0,4.484,0V29.032a5.236,5.236,0,0,0-5.231-5.231Zm0,0" transform="translate(-274.041 -16.686)"/>
    <path id="Path_207" data-name="Path 207" d="M139.821,107.713a2.242,2.242,0,0,0-2.242,2.242V140.2a8.373,8.373,0,1,1-16.745,0V90.328a12.857,12.857,0,0,0-25.714,0v15.165a8.373,8.373,0,0,1-16.746,0V94.3L89.785,82.889a6.06,6.06,0,0,0,1.589-5.751l27.5-27.5a6.073,6.073,0,0,0,0-8.578L89.422,11.6h20.195a2.242,2.242,0,1,0,0-4.484H84.938L79.6,1.774a6.073,6.073,0,0,0-8.578,0l-27.5,27.5a6.115,6.115,0,0,0-1.465-.184,6.027,6.027,0,0,0-4.289,1.776l-11.9,11.9a6.072,6.072,0,0,0,0,8.577L41.643,67.117A126.1,126.1,0,0,1,17.458,85.41a37.91,37.91,0,0,0-7.526,5.879A33.651,33.651,0,0,0,1.272,105.1c-1.5,5.154-.8,9.523,1.978,12.3a10.052,10.052,0,0,0,7.33,2.758c4.3,0,9.435-1.944,14.472-5.7a2.242,2.242,0,1,0-2.682-3.593c-6.41,4.783-13.116,6.2-15.949,3.368-1.544-1.545-1.851-4.414-.843-7.875a29.121,29.121,0,0,1,7.526-11.9,33.338,33.338,0,0,1,6.629-5.186A130.588,130.588,0,0,0,44.814,70.289l5.55,5.549a130.585,130.585,0,0,0-18.986,25.083,31.594,31.594,0,0,1-2.435,3.536,2.242,2.242,0,0,0,3.52,2.779,35.905,35.905,0,0,0,2.779-4.04A126.122,126.122,0,0,1,53.535,79.008L69.311,94.784A6.021,6.021,0,0,0,73.6,96.561c.1,0,.193-.009.288-.014v8.946a12.857,12.857,0,0,0,25.714,0V90.328a8.373,8.373,0,0,1,16.746,0V140.2a12.857,12.857,0,1,0,25.714,0V109.955a2.243,2.243,0,0,0-2.243-2.242ZM74.19,4.945a1.583,1.583,0,0,1,2.236,0l39.281,39.282a1.582,1.582,0,0,1,0,2.235L88.821,73.347,78.334,62.86l4.542-4.542a2.242,2.242,0,0,0-3.17-3.172l-4.544,4.542L59.284,43.81l4.544-4.542a2.242,2.242,0,1,0-3.17-3.17l-4.544,4.542L53.7,38.223l17.88-17.88a2.242,2.242,0,1,0-3.17-3.172L50.526,35.052,47.3,31.83ZM72.483,91.614,29.038,48.17a1.583,1.583,0,0,1,0-2.236l11.9-11.9a1.58,1.58,0,0,1,2.236,0L86.615,77.482a1.583,1.583,0,0,1,0,2.236l-11.9,11.9a1.58,1.58,0,0,1-2.236,0Zm0,0" transform="translate(-0.5 -0.001)"/>
    <path id="Path_208" data-name="Path 208" d="M139.295,173.28a2.242,2.242,0,1,0-3.172,3.17l23.719,23.719a2.242,2.242,0,0,0,3.17-3.172Zm0,0" transform="translate(-95.12 -121.02)"/>
    <path id="Path_209" data-name="Path 209" d="M418.735,182.277h-.023a2.254,2.254,0,1,0,.023,0Zm0,0" transform="translate(-292.129 -127.788)"/>
    <path id="Path_210" data-name="Path 210" d="M425.034,202.777a2.242,2.242,0,0,0,.05,4.484h.029a2.242,2.242,0,0,0-.028-4.484h-.028Zm0,0" transform="translate(-296.581 -142.16)"/>
    <path id="Path_211" data-name="Path 211" d="M378.417,225.883a2.254,2.254,0,1,0,.023,0Zm0,0" transform="translate(-263.881 -158.359)"/>
  </g>
</svg>
