<svg xmlns="http://www.w3.org/2000/svg"  viewBox="0 0 117.416 117.416">
  <g id="Plumbing" transform="translate(-2 -2)" opacity="0.6">
    <path id="Path_272" data-name="Path 272" d="M74.238,61.139H48.8a9.123,9.123,0,0,1-9.785-9.785V22H74.238Z" transform="translate(35.394 19.139)" fill="#ffd782"/>
    <path id="Path_273" data-name="Path 273" d="M49,22V33.742a5.871,5.871,0,1,1,0,11.742l15.656,5.871,7.828-9.785V22Z" transform="translate(44.976 19.139)" fill="#394d5c"/>
    <path id="Path_274" data-name="Path 274" d="M56.4,46l-9.785,9.785L36.828,46,29,53.828,46.612,71.44v3.914h45.01V46Z" transform="translate(25.837 42.105)" fill="#96c3f0"/>
    <path id="Path_275" data-name="Path 275" d="M38,71.44v3.914H83.01V65.569H65.4V46H57.569V65.569Z" transform="translate(34.45 42.105)" fill="#195c85"/>
    <path id="Path_276" data-name="Path 276" d="M54.656,10H66.4A15.655,15.655,0,0,1,82.053,25.656v7.828H39V25.656A15.655,15.655,0,0,1,54.656,10Z" transform="translate(35.407 7.656)" fill="#4f97d5"/>
    <path id="Path_277" data-name="Path 277" d="M30.914,18H50.483v7.828H30.914a3.914,3.914,0,0,1,0-7.828Z" transform="translate(23.923 15.311)" fill="#50b4f8"/>
    <path id="Path_278" data-name="Path 278" d="M40.656,52.7V46.828A7.828,7.828,0,0,0,32.828,39v5.871L25,52.7l7.828,7.828Z" transform="translate(22.01 35.407)" fill="#ffd782"/>
    <path id="Path_279" data-name="Path 279" d="M31.448,41.029V35.158L29.491,33.2a8.243,8.243,0,0,0-11.742,0l-1.957,1.957a5.534,5.534,0,0,0,0,7.828L19.707,46.9h5.871L37.319,58.642l5.871-5.871Z" transform="translate(11.647 27.507)" fill="#cfdfe8"/>
    <path id="Path_280" data-name="Path 280" d="M3,3H42.139V6.914A19.569,19.569,0,0,1,22.569,26.483H3Z" transform="translate(0.957 0.957)" fill="#e6f1fd"/>
    <path id="Path_281" data-name="Path 281" d="M3,15H18.656v7.828H3Z" transform="translate(0.957 12.44)" fill="#aabece"/>
    <path id="Path_282" data-name="Path 282" d="M3,19H14.742V38.569A7.828,7.828,0,0,1,6.914,46.4H3Z" transform="translate(0.957 16.268)" fill="#4f97d5"/>
    <path id="Path_283" data-name="Path 283" d="M3,19H14.742v7.828H3Z" transform="translate(0.957 16.268)" fill="#e8e8e8"/>
    <g id="Group_63" data-name="Group 63" transform="translate(3.957 33.311)">
      <path id="Path_284" data-name="Path 284" d="M24.742,23.914a3.914,3.914,0,0,1-3.914,3.914c-2.162,0-7.828-3.914-7.828-3.914S18.665,20,20.828,20A3.914,3.914,0,0,1,24.742,23.914Z" transform="translate(6.569 -16.086)" fill="#50b4f8"/>
      <path id="Path_285" data-name="Path 285" d="M6.914,48.742A3.914,3.914,0,0,1,3,44.828C3,42.675,6.914,37,6.914,37s3.914,5.675,3.914,7.828A3.914,3.914,0,0,1,6.914,48.742Z" transform="translate(-3 0.182)" fill="#50b4f8"/>
      <path id="Path_286" data-name="Path 286" d="M12.914,53.742A3.914,3.914,0,0,1,9,49.828C9,47.675,12.914,42,12.914,42s3.914,5.675,3.914,7.828A3.914,3.914,0,0,1,12.914,53.742Z" transform="translate(2.742 4.966)" fill="#50b4f8"/>
      <path id="Path_287" data-name="Path 287" d="M58.914,18h7.828v7.828H58.914a3.914,3.914,0,1,1,0-7.828Z" transform="translate(46.761 -18)" fill="#50b4f8"/>
    </g>
    <path id="Path_288" data-name="Path 288" d="M42,27h3.914v3.914H42Z" transform="translate(38.278 23.923)"/>
    <path id="Path_289" data-name="Path 289" d="M106.767,59.6H71.542a1.957,1.957,0,0,0-1.383.573l-8.4,8.4L53.93,60.746V55.685A9.8,9.8,0,0,0,44.145,45.9a1.957,1.957,0,0,0-1.957,1.957V49l-7.828-7.828V36.116a1.957,1.957,0,0,0-.573-1.383L31.83,32.775a10.2,10.2,0,0,0-14.509,0l-1.957,1.957a7.5,7.5,0,0,0,0,10.595l3.914,3.914a1.957,1.957,0,0,0,1.384.573h5.061L35.507,59.6l-.573.573a1.957,1.957,0,0,0,0,2.767L59.8,87.806v3.1a1.957,1.957,0,0,0,1.957,1.957h45.01a1.957,1.957,0,0,0,1.957-1.957V61.556a1.957,1.957,0,0,0-1.957-1.957ZM27.916,46.474a1.957,1.957,0,0,0-1.384-.573H21.472l-3.34-3.34a3.562,3.562,0,0,1-.366-4.616l5.427,5.427L25.959,40.6,20.537,35.18a6.419,6.419,0,0,1,8.526.362l1.384,1.384v5.061a1.957,1.957,0,0,0,.573,1.383L41.378,53.728l-3.1,3.1ZM39.085,61.556l6.444-6.444a1.935,1.935,0,0,0,.425-.64,1.957,1.957,0,0,0,.149-.744V50.149a5.883,5.883,0,0,1,3.914,5.536v5.061l-5.871,5.871Zm7.828,7.828,5.061-5.061,8.4,8.4a1.957,1.957,0,0,0,2.767,0l9.211-9.211H79.37V79.669L68.63,82.887l6.262-6.252-2.767-2.767L61.758,84.229Zm57.9,19.569h-41.1v-.5L81.889,83a1.957,1.957,0,0,0,1.4-1.875V63.513H87.2V81.125a1.957,1.957,0,0,0,1.957,1.957H104.81Zm0-9.785h-13.7V63.513h13.7Z" transform="translate(10.692 26.549)"/>
    <path id="Path_290" data-name="Path 290" d="M78.837,9H67.1A17.632,17.632,0,0,0,49.6,24.655H31.871a5.871,5.871,0,1,0,0,11.742H49.483v27.4A11.115,11.115,0,0,0,61.225,75.536h25.44a1.957,1.957,0,0,0,1.957-1.957v-9.1l7.4-9.248a1.957,1.957,0,0,0,.429-1.223v-27.4A17.632,17.632,0,0,0,78.837,9ZM49.483,32.483H31.871a1.957,1.957,0,1,1,0-3.914H49.483ZM84.708,71.622H61.225a7.061,7.061,0,0,1-7.732-6.585l9.9-3.3-1.237-3.718L53.4,60.943V36.4H69.053v9.785a1.957,1.957,0,0,0,1.957,1.957,3.914,3.914,0,0,1,0,7.828,1.957,1.957,0,0,0-.689,3.791L84.708,65.15Zm0-10.652-8.415-3.153a7.828,7.828,0,0,0-3.327-13.346V36.4H84.708Zm7.828-7.648-3.914,4.892V36.4h3.914Zm0-20.839H86.665a1.957,1.957,0,1,1,0-3.914h5.871Zm-5.871-7.828a5.871,5.871,0,0,0-5.871,5.871,5.8,5.8,0,0,0,.36,1.957H53.4V26.612a13.75,13.75,0,0,1,.157-1.957h9.628V20.742H54.738A13.7,13.7,0,0,1,67.1,12.914H78.837A13.7,13.7,0,0,1,92.379,24.655Z" transform="translate(22.966 6.699)"/>
    <path id="Path_291" data-name="Path 291" d="M3.957,64.622H7.871a9.8,9.8,0,0,0,9.785-9.785V37.225h1.957a1.957,1.957,0,0,0,1.957-1.957V29.4h1.957A21.552,21.552,0,0,0,45.053,7.871V3.957A1.957,1.957,0,0,0,43.1,2H3.957A1.957,1.957,0,0,0,2,3.957V62.665A1.957,1.957,0,0,0,3.957,64.622ZM5.914,5.914H41.139V7.871A17.632,17.632,0,0,1,23.526,25.483H5.914Zm0,23.483H17.656v3.914H5.914Zm0,7.828h7.828v3.914H5.914Zm0,7.828h7.828v9.785a5.871,5.871,0,0,1-5.871,5.871H5.914Z"/>
    <path id="Path_292" data-name="Path 292" d="M27.655,24.871A5.871,5.871,0,0,0,21.785,19c-2.5,0-7.084,2.978-8.939,4.26a1.957,1.957,0,0,0,0,3.221c1.855,1.282,6.438,4.26,8.939,4.26A5.871,5.871,0,0,0,27.655,24.871Zm-5.871-1.957a1.957,1.957,0,1,1,0,3.914,14.593,14.593,0,0,1-4.2-1.957A14.612,14.612,0,0,1,21.785,22.914Z" transform="translate(9.569 16.268)"/>
    <path id="Path_293" data-name="Path 293" d="M7.871,51.63a5.871,5.871,0,0,0,5.871-5.871c0-2.5-2.978-7.086-4.26-8.939a2.031,2.031,0,0,0-3.221,0C4.978,38.673,2,43.258,2,45.759A5.871,5.871,0,0,0,7.871,51.63Zm0-10.07a14.612,14.612,0,0,1,1.957,4.2,1.957,1.957,0,1,1-3.914,0,14.593,14.593,0,0,1,1.957-4.2Z" transform="translate(0 32.561)"/>
    <path id="Path_294" data-name="Path 294" d="M12.26,41.82C10.978,43.673,8,48.258,8,50.759a5.871,5.871,0,1,0,11.742,0c0-2.5-2.978-7.086-4.26-8.939a2.031,2.031,0,0,0-3.221,0Zm1.611,10.9a1.957,1.957,0,0,1-1.957-1.957,14.593,14.593,0,0,1,1.957-4.2,14.613,14.613,0,0,1,1.957,4.2A1.957,1.957,0,0,1,13.871,52.716Z" transform="translate(5.742 37.346)"/>
  </g>
</svg>
