<svg xmlns="http://www.w3.org/2000/svg"  viewBox="0 0 136.674 144.06">
  <g id="tools-and-utensils_icon" data-name="tools-and-utensils icon" transform="translate(-13.124 0)">
    <path id="Path_124" data-name="Path 124" d="M87.111,329.084,52.267,363.929a10.57,10.57,0,0,1-15.111-.18,10.69,10.69,0,0,1,.317-14.891l34.7-34.7a1.79,1.79,0,0,1,2.537,0l.551.549,3.663,3.663v0L86.56,326l.551.549A1.8,1.8,0,0,1,87.111,329.084Z" transform="translate(-15.211 -225.382)" fill="#e8b33f"/>
    <rect id="Rectangle_1" data-name="Rectangle 1" width="58.658" height="15.973" transform="translate(112.826 59.138) rotate(135)" fill="#92949b"/>
    <g id="Group_6" data-name="Group 6" transform="translate(87.528 13.005)">
      <path id="Path_125" data-name="Path 125" d="M415.517,170.876a27.776,27.776,0,0,1,4.56,33.713c-4.583-10.325-15.187-21.972-22.6-26.259l4.033-4.033,8.721-8.709,0,0Z" transform="translate(-363.736 -132.003)" fill="#484b54"/>
      <path id="Path_126" data-name="Path 126" d="M307.457,57.694,289.034,76.117l-.643-.428c1.259-2.528.489-6.086-2.087-8.662-2.56-2.56-6.092-3.336-8.616-2.105l-.125-.275,18.423-18.423.3.137c-1.186,2.52-.4,6.011,2.136,8.549,2.58,2.58,6.15,3.35,8.678,2.079Z" transform="translate(-277.563 -46.223)" fill="#484b54"/>
    </g>
    <g id="Group_7" data-name="Group 7" transform="translate(76.737 2.143)">
      <path id="Path_127" data-name="Path 127" d="M268.723,18.617l-.3-.137L250,36.9l.125.275a5.085,5.085,0,0,0-1.329.93l-9.587-9.588,20.9-20.9L269.7,17.2A5.029,5.029,0,0,0,268.723,18.617Z" transform="translate(-239.209 -7.617)" fill="#92949b"/>
      <path id="Path_128" data-name="Path 128" d="M353.427,100.934l-4.037,4.029-8.721,8.709-4.033,4.033-4.122,4.122-4.318-4.318,0,0L316.9,106.212l0,0-4.086-4.086a5.136,5.136,0,0,0,.909-1.285l.643.428L332.79,82.848l-.358-.705a5.082,5.082,0,0,0,1.285-.917S346.084,93.591,353.427,100.934Z" transform="translate(-292.105 -60.515)" fill="#92949b"/>
    </g>
    <path id="Path_129" data-name="Path 129" d="M78.93,318.366v0s-36.867,30.361-41.774,45.38a10.69,10.69,0,0,1,.317-14.891l34.7-34.7a1.79,1.79,0,0,1,2.537,0l.551.549Z" transform="translate(-15.211 -225.382)" fill="#d39f37"/>
    <path id="Path_130" data-name="Path 130" d="M279.135,305.974l5.921,5.921L273.2,323.75l-5.921-5.921,2.494-2.494,6.868-6.867Z" transform="translate(-182.645 -219.883)" fill="#484b54"/>
    <path id="Path_131" data-name="Path 131" d="M333.718,361.531a10.88,10.88,0,0,1-18.574,7.692l-21.517-21.514a5.119,5.119,0,1,0-7.238-7.241l-4.341-4.341,1.766-1.766,5.132-5.129,6.724-6.727,1.766-1.766,4.341,4.341a5.119,5.119,0,1,0,7.241,7.238l21.514,21.517A10.85,10.85,0,0,1,333.718,361.531Z" transform="translate(-193.258 -230.494)" fill="#ea3d3d"/>
    <path id="Path_132" data-name="Path 132" d="M28.07,59.434l14.617,7.289,1.279,9.069,55.505,55.5L92.6,138.164l-55.5-55.5L28.03,81.38,20.741,66.763Z" transform="translate(-5.474 -42.711)" fill="#b5b6ba"/>
    <path id="Path_133" data-name="Path 133" d="M330.532,390.914a10.881,10.881,0,0,1-15.388,0L293.628,369.4a5.119,5.119,0,1,0-7.238-7.241l-4.341-4.341,1.766-1.766,5.132-5.129C289.287,351.357,314.019,382.881,330.532,390.914Z" transform="translate(-193.258 -252.185)" fill="#d33333"/>
    <path id="Path_134" data-name="Path 134" d="M85.472,300.964,81.137,305.3l-8.264-8.263,4.336-4.336a2.143,2.143,0,1,0-3.031-3.031l-4.51,4.51a3.927,3.927,0,0,0-4.429.791L40.1,320.105a2.143,2.143,0,0,0,3.031,3.031l24.889-24.889,11.9,11.9-34.6,34.6a8.427,8.427,0,0,1-12.043-.146,8.569,8.569,0,0,1,.281-11.9l4.114-4.114a2.143,2.143,0,0,0-3.031-3.031l-4.114,4.114a12.881,12.881,0,0,0-.352,17.884,12.606,12.606,0,0,0,9.044,3.932h.155a12.6,12.6,0,0,0,8.977-3.715L83.2,312.932a3.941,3.941,0,0,0,.79-4.426l4.511-4.511a2.143,2.143,0,0,0-3.03-3.031Z" transform="translate(-9.788 -207.714)"/>
    <path id="Path_135" data-name="Path 135" d="M302.811,56.918a2.143,2.143,0,0,0-3.729,2.114,25.3,25.3,0,0,1,1.751,21.72c-4.946-8.861-12.9-17.34-19.175-21.775l9.363-9.354,3.771,3.771a2.143,2.143,0,1,0,3.031-3.03l-3.77-3.77,2.517-2.515a2.143,2.143,0,0,0,0-3.033L276.864,21.338a2.143,2.143,0,0,0-3.015-.016,2.945,2.945,0,0,1-.748.534c-1.743.877-4.351.17-6.2-1.68s-2.543-4.356-1.706-6.133a2.894,2.894,0,0,1,.561-.812,2.143,2.143,0,0,0-.015-3.016L256.153.628a2.143,2.143,0,0,0-3.031,0l-20.9,20.9a2.143,2.143,0,0,0,0,3.031l9.588,9.588a2.143,2.143,0,0,0,3.007.023,2.957,2.957,0,0,1,.777-.542c1.739-.848,4.331-.136,6.161,1.694s2.552,4.448,1.684,6.192a2.984,2.984,0,0,1-.53.749,2.143,2.143,0,0,0,.024,3.007l2.569,2.569-18.394,18.4a2.143,2.143,0,0,0,3.031,3.031l18.394-18.4,8.265,8.265-18.4,18.4a2.143,2.143,0,0,0,3.031,3.031l18.4-18.4,2.8,2.8a2.143,2.143,0,0,0,3.031,0l2.918-2.915c6.769,4.529,16.088,14.844,20.332,24.406a2.143,2.143,0,0,0,1.837,1.27c.041,0,.081,0,.122,0a2.143,2.143,0,0,0,1.847-1.058A29.468,29.468,0,0,0,302.811,56.918ZM236.766,23.046,254.638,5.174l6.557,6.557L243.323,29.6ZM249.683,29.3l11.2-11.2a11.368,11.368,0,0,0,2.986,5.1,11.271,11.271,0,0,0,5.685,3.1L257.886,37.98a11.269,11.269,0,0,0-3.1-5.687A11.389,11.389,0,0,0,249.683,29.3Zm24.461,31.121L257.824,44.1,275.7,26.232l16.329,16.329Z" transform="translate(-156.998 0)"/>
    <path id="Path_136" data-name="Path 136" d="M135.349,155.624a2.143,2.143,0,0,0-3.031,3.031l3.44,3.44A8.739,8.739,0,0,1,123.4,174.453l-20.226-20.226a7.268,7.268,0,0,0-9.818-9.819l-1.536-1.536,12.358-12.358,1.538,1.538a7.267,7.267,0,0,0,9.817,9.817l11.355,11.355a2.143,2.143,0,1,0,3.031-3.031l-12.645-12.645a2.143,2.143,0,0,0-3.031,0,2.976,2.976,0,1,1-4.209-4.209,2.143,2.143,0,0,0,0-3.031l-4.34-4.34a2.143,2.143,0,0,0-3.031,0l-.252.252-4.405-4.405a2.143,2.143,0,0,0-3.031,0l-.978.978L40.514,69.309,39.335,60.95a2.142,2.142,0,0,0-1.166-1.619L23.552,52.043a2.143,2.143,0,0,0-2.472.4l-7.329,7.328a2.143,2.143,0,0,0-.4,2.472l7.289,14.617a2.144,2.144,0,0,0,1.619,1.166l8.359,1.179,6.066,6.066a2.143,2.143,0,0,0,3.031-3.031L33.14,75.671a2.142,2.142,0,0,0-1.216-.607l-7.953-1.122-6.1-12.229,5.147-5.147,12.228,6.1,1.122,7.953a2.142,2.142,0,0,0,.607,1.216l53.989,53.989-3.837,3.837L44,86.528a2.143,2.143,0,0,0-3.031,3.031L84.1,132.69l-.978.978a2.143,2.143,0,0,0,0,3.031l4.406,4.405-.251.252a2.143,2.143,0,0,0,0,3.031l4.34,4.34a2.143,2.143,0,0,0,3.031,0,2.976,2.976,0,1,1,4.209,4.209,2.143,2.143,0,0,0,0,3.031l21.516,21.516a13.025,13.025,0,0,0,18.419-18.419Zm-47.683-20.44,7.846-7.846h0l.978-.978,2.89,2.89-8.824,8.824Z" transform="translate(0 -37.238)"/>
  </g>
</svg>
