<svg xmlns="http://www.w3.org/2000/svg" width="202.978" height="82" viewBox="0 0 202.978 82">
  <g id="Meet_the_owner_button" data-name="Meet the owner button" transform="translate(-1184.452 -3198)">
    <g id="Path_296" data-name="Path 296" transform="translate(1184.452 3280) rotate(-90)" fill="#080808">
      <path d="M 41 202.4780426025391 C 35.55865097045898 202.4780426025391 30.27720069885254 200.9311828613281 25.30232429504395 197.8804321289063 C 20.47990036010742 194.9231567382813 16.14572525024414 190.6849670410156 12.42022514343262 185.2835388183594 C 8.685250282287598 179.868408203125 5.751999855041504 173.5596618652344 3.701975107192993 166.5325622558594 C 1.577299952507019 159.2495574951172 0.5 151.5118865966797 0.5 143.5344696044922 L 0.5 59.44356536865234 C 0.5 51.46613693237305 1.577299952507019 43.72846221923828 3.701975107192993 36.44548797607422 C 5.751999855041504 29.41836357116699 8.685250282287598 23.10963821411133 12.42022514343262 17.69451332092285 C 16.14572525024414 12.29308891296387 20.47990036010742 8.054888725280762 25.30232429504395 5.09761381149292 C 30.27720069885254 2.046863555908203 35.55865097045898 0.5000136494636536 41 0.5000136494636536 C 46.44134902954102 0.5000136494636536 51.72280120849609 2.046863555908203 56.69767379760742 5.09761381149292 C 61.52009963989258 8.054888725280762 65.85427856445313 12.29308891296387 69.57977294921875 17.69451332092285 C 73.31475067138672 23.10963821411133 76.24800109863281 29.41836357116699 78.29802703857422 36.44548797607422 C 80.42269897460938 43.72846221923828 81.5 51.46613693237305 81.5 59.44356536865234 L 81.5 143.5344696044922 C 81.5 151.5118865966797 80.42269897460938 159.2495574951172 78.29802703857422 166.5325622558594 C 76.24800109863281 173.5596618652344 73.31475067138672 179.868408203125 69.57977294921875 185.2835388183594 C 65.85427856445313 190.6849670410156 61.52009963989258 194.9231567382813 56.69767379760742 197.8804321289063 C 51.72280120849609 200.9311828613281 46.44134902954102 202.4780426025391 41 202.4780426025391 Z" stroke="none"/>
      <path d="M 41 0.9999847412109375 C 35.65229034423828 0.9999847412109375 30.45876312255859 2.52203369140625 25.5637092590332 5.523834228515625 C 20.80110549926758 8.444412231445313 16.51747131347656 12.63471984863281 12.831787109375 17.97837829589844 C 9.127235412597656 23.34944152832031 6.217002868652344 29.60977172851563 4.181976318359375 36.58547973632813 C 2.070579528808594 43.82298278808594 1 51.51353454589844 1 59.44357299804688 L 1 143.5344543457031 C 1 151.4644927978516 2.070579528808594 159.1550445556641 4.181976318359375 166.3925170898438 C 6.217002868652344 173.3682250976563 9.127235412597656 179.6285705566406 12.831787109375 184.9996185302734 C 16.51747131347656 190.3432769775391 20.80110549926758 194.5335998535156 25.5637092590332 197.4541778564453 C 30.45876312255859 200.4559631347656 35.65229034423828 201.9780120849609 41 201.9780120849609 C 46.34770965576172 201.9780120849609 51.54123687744141 200.4559631347656 56.43628692626953 197.4541778564453 C 61.19889450073242 194.5335998535156 65.48252868652344 190.3432769775391 69.168212890625 184.9996185302734 C 72.87276458740234 179.6285705566406 75.78299713134766 173.3682250976563 77.81802368164063 166.3925170898438 C 79.92942047119141 159.1550445556641 81 151.4644927978516 81 143.5344543457031 L 81 59.44357299804688 C 81 51.51353454589844 79.92942047119141 43.82298278808594 77.81802368164063 36.58547973632813 C 75.78299713134766 29.60977172851563 72.87276458740234 23.34944152832031 69.168212890625 17.97837829589844 C 65.48252868652344 12.63471984863281 61.19889450073242 8.444412231445313 56.43628692626953 5.523834228515625 C 51.54123687744141 2.52203369140625 46.34770965576172 0.9999847412109375 41 0.9999847412109375 M 41 -1.52587890625e-05 C 63.64368438720703 -1.52587890625e-05 82 26.61376953125 82 59.44357299804688 L 82 143.5344543457031 C 82 176.3642272949219 63.64368438720703 202.9780120849609 41 202.9780120849609 C 18.35631561279297 202.9780120849609 0 176.3642272949219 0 143.5344543457031 L 0 59.44357299804688 C 0 26.61376953125 18.35631561279297 -1.52587890625e-05 41 -1.52587890625e-05 Z" stroke="none" fill="#707070"/>
    </g>
    <g id="Ellipse_41" data-name="Ellipse 41" transform="translate(1324.43 3218.5)" fill="#fff0f0" stroke="#707070" stroke-width="1">
      <ellipse cx="20" cy="20.5" rx="20" ry="20.5" stroke="none"/>
      <ellipse cx="20" cy="20.5" rx="19.5" ry="20" fill="none"/>
    </g>
  </g>
</svg>
